  0
SECTION
  2
HEADER
  9
$ACADVER
  1
AC1018
  9
$ACADMAINTVER
 70
0
  9
$DWGCODEPAGE
  3
ANSI_949
  9
$EXTMIN
 10
30.0
 20
49.75
 30
0.0
  9
$EXTMAX
 10
130.5
 20
163.1318914119703
 30
0.0
  9
$LIMMIN
 10
0.0
 20
0.0
  9
$LIMMAX
 10
12.0
 20
9.0
  9
$LTSCALE
 40
1.0
  9
$TDCREATE
 40
2461303.4553356483
  9
$TDUPDATE
 40
2461303.4553356483
  9
$PDMODE
 70
33
  9
$PDSIZE
 40
1.0
  9
$HANDSEED
  5
99999A6
  9
$PEXTMIN
 10
1e+20
 20
1e+20
 30
1e+20
  9
$PEXTMAX
 10
-1e+20
 20
-1e+20
 30
-1e+20
  9
$PLIMMIN
 10
0.0
 20
0.0
  9
$PLIMMAX
 10
12.0
 20
9.0
  9
$PSLTSCALE
 70
0
  9
$FINGERPRINTGUID
  2
{79315031-1291-4D49-A3B8-287D1999DAB9}
  9
$VERSIONGUID
  2
{35829E5C-5D5E-43A3-8EAA-EBC9D7E0D141}
  0
ENDSEC
  0
SECTION
  2
CLASSES
  0
CLASS
  1
ACDBDICTIONARYWDFLT
  2
AcDbDictionaryWithDefault
  3
ObjectDBX Classes
 90
0
 91
0
280
0
281
0
  0
CLASS
  1
SUN
  2
AcDbSun
  3
SCENEOE
 90
1153
 91
0
280
0
281
0
  0
CLASS
  1
VISUALSTYLE
  2
AcDbVisualStyle
  3
ObjectDBX Classes
 90
4095
 91
0
280
0
281
0
  0
CLASS
  1
MATERIAL
  2
AcDbMaterial
  3
ObjectDBX Classes
 90
1153
 91
0
280
0
281
0
  0
CLASS
  1
SCALE
  2
AcDbScale
  3
ObjectDBX Classes
 90
1153
 91
0
280
0
281
0
  0
CLASS
  1
TABLESTYLE
  2
AcDbTableStyle
  3
ObjectDBX Classes
 90
4095
 91
0
280
0
281
0
  0
CLASS
  1
MLEADERSTYLE
  2
AcDbMLeaderStyle
  3
ACDB_MLEADERSTYLE_CLASS
 90
4095
 91
0
280
0
281
0
  0
CLASS
  1
DICTIONARYVAR
  2
AcDbDictionaryVar
  3
ObjectDBX Classes
 90
0
 91
0
280
0
281
0
  0
CLASS
  1
CELLSTYLEMAP
  2
AcDbCellStyleMap
  3
ObjectDBX Classes
 90
1152
 91
0
280
0
281
0
  0
CLASS
  1
MENTALRAYRENDERSETTINGS
  2
AcDbMentalRayRenderSettings
  3
SCENEOE
 90
1024
 91
0
280
0
281
0
  0
CLASS
  1
ACDBDETAILVIEWSTYLE
  2
AcDbDetailViewStyle
  3
ObjectDBX Classes
 90
1025
 91
0
280
0
281
0
  0
CLASS
  1
ACDBSECTIONVIEWSTYLE
  2
AcDbSectionViewStyle
  3
ObjectDBX Classes
 90
1025
 91
0
280
0
281
0
  0
CLASS
  1
RASTERVARIABLES
  2
AcDbRasterVariables
  3
ISM
 90
0
 91
0
280
0
281
0
  0
CLASS
  1
LAYOUT
  2
AcDbLayout
  3
ObjectDBX Classes
 90
0
 91
0
280
0
281
0
  0
CLASS
  1
ACDBPLACEHOLDER
  2
AcDbPlaceHolder
  3
ObjectDBX Classes
 90
0
 91
0
280
0
281
0
  0
ENDSEC
  0
SECTION
  2
TABLES
  0
TABLE
  2
VPORT
  5
74
330
0
100
AcDbSymbolTable
 70
1
  0
VPORT
  5
75
330
74
100
AcDbSymbolTableRecord
100
AcDbViewportTableRecord
  2
*ACTIVE
 70
0
 10
0.0
 20
0.0
 11
1.0
 21
1.0
 12
0.0
 22
0.0
 13
0.0
 23
0.0
 14
1.0
 24
1.0
 15
1.0
 25
1.0
 16
0.0
 26
0.0
 36
1.0
 17
946712.25
 27
1808397.25
 37
0.0
 40
247.5
 41
1.3474747474747475
 42
50.0
 43
0.0
 44
0.0
 50
0.0
 51
0.0
 71
0
 72
100
 73
1
 74
1
 75
0
 76
0
 77
0
 78
0
281
0
 65
1
110
0.0
120
0.0
130
0.0
111
1.0
121
0.0
131
0.0
112
0.0
122
1.0
132
0.0
 79
0
146
0.0
  0
ENDTAB
  0
TABLE
  2
LTYPE
  5
64
330
0
100
AcDbSymbolTable
 70
7
  0
LTYPE
  5
65
330
64
100
AcDbSymbolTableRecord
100
AcDbLinetypeTableRecord
  2
ByLayer
 70
64
  3
Defaultstyle
 72
65
 73
0
 40
0.0
  0
LTYPE
  5
66
330
64
100
AcDbSymbolTableRecord
100
AcDbLinetypeTableRecord
  2
ByBlock
 70
64
  3
Defaultstyle
 72
65
 73
0
 40
0.0
  0
LTYPE
  5
67
330
64
100
AcDbSymbolTableRecord
100
AcDbLinetypeTableRecord
  2
CONTINUOUS
 70
64
  3
Defaultstyle
 72
65
 73
0
 40
0.0
  0
LTYPE
  5
68
330
64
100
AcDbSymbolTableRecord
100
AcDbLinetypeTableRecord
  2
DASH
 70
64
  3

 72
65
 73
2
 40
2.6
 49
2.0
 74
0
 49
-0.6
 74
0
  0
LTYPE
  5
69
330
64
100
AcDbSymbolTableRecord
100
AcDbLinetypeTableRecord
  2
DOT
 70
64
  3

 72
65
 73
2
 40
1.2
 49
0.6
 74
0
 49
-0.6
 74
0
  0
LTYPE
  5
6a
330
64
100
AcDbSymbolTableRecord
100
AcDbLinetypeTableRecord
  2
DASHDOT
 70
64
  3

 72
65
 73
4
 40
3.8000000000000003
 49
2.0
 74
0
 49
-0.6
 74
0
 49
0.6
 74
0
 49
-0.6
 74
0
  0
LTYPE
  5
6b
330
64
100
AcDbSymbolTableRecord
100
AcDbLinetypeTableRecord
  2
DASHDOTDOT
 70
64
  3

 72
65
 73
6
 40
5.0
 49
2.0
 74
0
 49
-0.6
 74
0
 49
0.6
 74
0
 49
-0.6
 74
0
 49
0.6
 74
0
 49
-0.6
 74
0
  0
ENDTAB
  0
TABLE
  2
LAYER
  5
77
330
0
100
AcDbSymbolTable
 70
15
  0
LAYER
  5
78
330
77
100
AcDbSymbolTableRecord
100
AcDbLayerTableRecord
  2
0
 70
64
 62
1
  6
CONTINUOUS
370
-3
390
f
  0
LAYER
  5
79
330
77
100
AcDbSymbolTableRecord
100
AcDbLayerTableRecord
  2
04_È¹Áö
 70
64
 62
1
  6
CONTINUOUS
370
-3
390
f
  0
LAYER
  5
7a
330
77
100
AcDbSymbolTableRecord
100
AcDbLayerTableRecord
  2
03_°¡±¸
 70
64
 62
1
  6
CONTINUOUS
370
-3
390
f
  0
LAYER
  5
7b
330
77
100
AcDbSymbolTableRecord
100
AcDbLayerTableRecord
  2
µµ·Î
 70
64
 62
1
  6
CONTINUOUS
370
-3
390
f
  0
LAYER
  5
7c
330
77
100
AcDbSymbolTableRecord
100
AcDbLayerTableRecord
  2
ÁÖ°Å
 70
64
 62
1
  6
CONTINUOUS
370
-3
390
f
  0
LAYER
  5
7d
330
77
100
AcDbSymbolTableRecord
100
AcDbLayerTableRecord
  2
02_µµ·Î¸é
 70
64
 62
1
  6
CONTINUOUS
370
-3
390
f
  0
LAYER
  5
7e
330
77
100
AcDbSymbolTableRecord
100
AcDbLayerTableRecord
  2
°ø¿ë¡¤Ä¿¹Â´ÏÆ¼
 70
64
 62
1
  6
CONTINUOUS
370
-3
390
f
  0
LAYER
  5
7f
330
77
100
AcDbSymbolTableRecord
100
AcDbLayerTableRecord
  2
°ø¿ø
 70
64
 62
1
  6
CONTINUOUS
370
-3
390
f
  0
LAYER
  5
80
330
77
100
AcDbSymbolTableRecord
100
AcDbLayerTableRecord
  2
3 »û±æ
 70
64
 62
1
  6
CONTINUOUS
370
-3
390
f
  0
LAYER
  5
81
330
77
100
AcDbSymbolTableRecord
100
AcDbLayerTableRecord
  2
1 ¾î±Í±æ
 70
64
 62
1
  6
CONTINUOUS
370
-3
390
f
  0
LAYER
  5
82
330
77
100
AcDbSymbolTableRecord
100
AcDbLayerTableRecord
  2
2 ¾È±æ
 70
64
 62
1
  6
CONTINUOUS
370
-3
390
f
  0
LAYER
  5
83
330
77
100
AcDbSymbolTableRecord
100
AcDbLayerTableRecord
  2
¿ÏÃæ³ìÁö
 70
64
 62
1
  6
CONTINUOUS
370
-3
390
f
  0
LAYER
  5
84
330
77
100
AcDbSymbolTableRecord
100
AcDbLayerTableRecord
  2
»ó¾÷
 70
64
 62
1
  6
CONTINUOUS
370
-3
390
f
  0
LAYER
  5
85
330
77
100
AcDbSymbolTableRecord
100
AcDbLayerTableRecord
  2
4 °ñ¸ñ
 70
64
 62
1
  6
CONTINUOUS
370
-3
390
f
  0
LAYER
  5
999999F
330
77
100
AcDbSymbolTableRecord
100
AcDbLayerTableRecord
  2
Defpoints
 70
0
 62
7
  6
Continuous
290
0
370
-3
390
F
  0
ENDTAB
  0
TABLE
  2
STYLE
  5
86
330
0
100
AcDbSymbolTable
 70
1
  0
STYLE
  5
87
330
86
100
AcDbSymbolTableRecord
100
AcDbTextStyleTableRecord
  2
STANDARD
 70
64
 40
0.0
 41
1.0
 50
0.0
 71
0
 42
5.0
  3
romans.shx
  4

  0
ENDTAB
  0
TABLE
  2
VIEW
  5
72
330
0
100
AcDbSymbolTable
 70
0
  0
ENDTAB
  0
TABLE
  2
UCS
  5
73
330
0
100
AcDbSymbolTable
 70
0
  0
ENDTAB
  0
TABLE
  2
APPID
  5
70
330
0
100
AcDbSymbolTable
 70
3
  0
APPID
  5
71
330
70
100
AcDbSymbolTableRecord
100
AcDbRegAppTableRecord
  2
ACAD
 70
0
  0
APPID
  5
99999A2
330
70
100
AcDbSymbolTableRecord
100
AcDbRegAppTableRecord
  2
HATCHBACKGROUNDCOLOR
 70
0
  0
APPID
  5
99999A3
330
70
100
AcDbSymbolTableRecord
100
AcDbRegAppTableRecord
  2
EZDXF
 70
0
  0
ENDTAB
  0
TABLE
  2
DIMSTYLE
  5
76
330
0
100
AcDbSymbolTable
 70
1
100
AcDbDimStyleTable
  0
DIMSTYLE
105
99999A0
330
76
100
AcDbSymbolTableRecord
100
AcDbDimStyleTableRecord
  2
Standard
 70
0
  3

  4

 40
1.0
 41
2.5
 42
0.625
 43
3.75
 44
1.25
 45
0.0
 46
0.0
 47
0.0
 48
0.0
140
2.5
141
2.5
142
0.0
143
0.03937007874
144
1.0
145
0.0
146
1.0
147
0.625
148
0.0
 71
0
 72
0
 73
0
 74
0
 75
0
 76
0
 77
1
 78
8
 79
3
170
0
171
3
172
1
173
0
174
0
175
0
176
0
177
0
178
0
179
2
271
2
272
2
273
2
274
3
275
0
276
0
277
2
278
44
279
0
280
0
281
0
282
0
283
0
284
8
285
0
286
0
288
0
289
3
371
-2
372
-2
  0
ENDTAB
  0
TABLE
  2
BLOCK_RECORD
  5
6c
330
0
100
AcDbSymbolTable
 70
3
  0
BLOCK_RECORD
  5
6d
330
6c
100
AcDbSymbolTableRecord
100
AcDbBlockTableRecord
  2
*Model_Space
340
22
  0
BLOCK_RECORD
  5
6e
330
6c
100
AcDbSymbolTableRecord
100
AcDbBlockTableRecord
  2
*Paper_Space
340
1E
  0
BLOCK_RECORD
  5
6f
330
6c
100
AcDbSymbolTableRecord
100
AcDbBlockTableRecord
  2
*Paper_Space0
340
26
  0
ENDTAB
  0
ENDSEC
  0
SECTION
  2
BLOCKS
  0
BLOCK
  5
88
330
6d
100
AcDbEntity
  8
0
100
AcDbBlockBegin
  2
*Model_Space
 70
0
 10
0.0
 20
0.0
 30
0.0
  3
*Model_Space
  1

  0
ENDBLK
  5
89
330
6d
100
AcDbEntity
  8
0
100
AcDbBlockEnd
  0
BLOCK
  5
8a
330
6e
100
AcDbEntity
  8
0
100
AcDbBlockBegin
  2
*Paper_Space
 70
0
 10
0.0
 20
0.0
 30
0.0
  3
*Paper_Space
  1

  0
ENDBLK
  5
8b
330
6e
100
AcDbEntity
  8
0
100
AcDbBlockEnd
  0
BLOCK
  5
8c
330
6f
100
AcDbEntity
  8
0
100
AcDbBlockBegin
  2
*Paper_Space0
 70
0
 10
0.0
 20
0.0
 30
0.0
  3
*Paper_Space0
  1

  0
ENDBLK
  5
8d
330
6f
100
AcDbEntity
  8
0
100
AcDbBlockEnd
  0
ENDSEC
  0
SECTION
  2
ENTITIES
  0
LWPOLYLINE
  5
8e
330
6d
100
AcDbEntity
  8
1 ¾î±Í±æ
  6
CONTINUOUS
420
0
100
AcDbPolyline
 90
2
 70
128
 43
-1.0
 10
946690.0
 20
1808518.52732366
 10
946690.0
 20
1808286.1821216722
  0
LWPOLYLINE
  5
8f
330
6d
100
AcDbEntity
  8
2 ¾È±æ
  6
CONTINUOUS
420
0
100
AcDbPolyline
 90
2
 70
128
 43
-1.0
 10
946581.840313038
 20
1808400.0
 10
946876.5677586871
 20
1808400.0
  0
LWPOLYLINE
  5
90
330
6d
100
AcDbEntity
  8
3 »û±æ
  6
CONTINUOUS
420
0
100
AcDbPolyline
 90
2
 70
128
 43
-1.0
 10
946562.3630253101
 20
1808465.0
 10
946790.081536594
 20
1808465.0
  0
LWPOLYLINE
  5
91
330
6d
100
AcDbEntity
  8
3 »û±æ
  6
CONTINUOUS
420
0
100
AcDbPolyline
 90
2
 70
128
 43
-1.0
 10
946596.8228420593
 20
1808350.0
 10
946874.0290665127
 20
1808350.0
  0
LWPOLYLINE
  5
92
330
6d
100
AcDbEntity
  8
3 »û±æ
  6
CONTINUOUS
420
0
100
AcDbPolyline
 90
2
 70
128
 43
-1.0
 10
946770.0
 20
1808465.0
 10
946770.0
 20
1808350.0
  0
LWPOLYLINE
  5
93
330
6d
100
AcDbEntity
  8
4 °ñ¸ñ
  6
CONTINUOUS
420
0
100
AcDbPolyline
 90
2
 70
128
 43
-1.0
 10
946632.0
 20
1808465.0
 10
946632.0
 20
1808350.0
  0
LWPOLYLINE
  5
94
330
6d
100
AcDbEntity
  8
4 °ñ¸ñ
  6
CONTINUOUS
420
0
100
AcDbPolyline
 90
2
 70
128
 43
-1.0
 10
946608.2095641156
 20
1808312.0
 10
946694.0
 20
1808312.0
  0
LWPOLYLINE
  5
95
330
6d
100
AcDbEntity
  8
02_µµ·Î¸é
  6
CONTINUOUS
420
0
100
AcDbPolyline
 90
55
 70
129
 43
-1.0
 10
946686.0
 20
1808347.0
 10
946608.1611084108
 20
1808347.0
 10
946597.7217938006
 20
1808347.0
 10
946596.8228420593
 20
1808350.0000000002
 10
946596.8228420593
 20
1808353.0
 10
946606.3632045342
 20
1808353.0
 10
946630.0
 20
1808353.0
 10
946630.0
 20
1808396.0
 10
946593.4782267512
 20
1808396.0
 10
946583.0389153596
 20
1808396.0
 10
946581.840313038
 20
1808400.0
 10
946581.840313038
 20
1808404.0
 10
946591.0810215822
 20
1808404.0
 10
946630.0
 20
1808404.0
 10
946630.0
 20
1808462.0
 10
946573.7012841075
 20
1808462.0
 10
946563.2619770514
 20
1808462.0
 10
946562.3630253101
 20
1808465.0
 10
946562.3630253101
 20
1808468.0
 10
946571.9033802308
 20
1808468.0
 10
946686.0
 20
1808468.0
 10
946686.0
 20
1808518.4809022578
 10
946689.9999999907
 20
1808518.52732366
 10
946694.0
 20
1808518.52732366
 10
946694.0
 20
1808468.0
 10
946788.9562683082
 20
1808468.0
 10
946788.9559252085
 20
1808467.9412345556
 10
946790.081536594
 20
1808465.0
 10
946790.081536594
 20
1808462.5467864808
 10
946789.5552889503
 20
1808462.0
 10
946773.0
 20
1808462.0
 10
946773.0
 20
1808404.0
 10
946876.5677586871
 20
1808404.0
 10
946876.5677586871
 20
1808399.999999999
 10
946876.310643624
 20
1808396.0
 10
946773.0
 20
1808396.0
 10
946773.0
 20
1808353.0
 10
946874.0290665127
 20
1808353.0
 10
946874.0290665127
 20
1808349.9999999995
 10
946873.9606569122
 20
1808348.2276550569
 10
946873.9210482412
 20
1808347.0
 10
946694.0
 20
1808347.0
 10
946694.0
 20
1808314.0
 10
946694.0
 20
1808310.0
 10
946694.0
 20
1808286.7279640702
 10
946690.0000000005
 20
1808286.1821216722
 10
946686.0
 20
1808286.1821216722
 10
946686.0
 20
1808310.0
 10
946619.2481823171
 20
1808310.0
 10
946608.8088652765
 20
1808310.0
 10
946608.2095641156
 20
1808312.0
 10
946608.2095641156
 20
1808314.0
 10
946618.0495797327
 20
1808314.0
 10
946686.0
 20
1808314.0
 10
946686.0
 20
1808347.0
  0
LWPOLYLINE
  5
96
330
6d
100
AcDbEntity
  8
02_µµ·Î¸é
  6
CONTINUOUS
420
0
100
AcDbPolyline
 90
5
 70
129
 43
-1.0
 10
946634.0
 20
1808353.0
 10
946686.0
 20
1808353.0
 10
946686.0
 20
1808396.0
 10
946634.0
 20
1808396.0
 10
946634.0
 20
1808353.0
  0
LWPOLYLINE
  5
97
330
6d
100
AcDbEntity
  8
02_µµ·Î¸é
  6
CONTINUOUS
420
0
100
AcDbPolyline
 90
5
 70
129
 43
-1.0
 10
946694.0
 20
1808353.0
 10
946767.0
 20
1808353.0
 10
946767.0
 20
1808396.0
 10
946694.0
 20
1808396.0
 10
946694.0
 20
1808353.0
  0
LWPOLYLINE
  5
98
330
6d
100
AcDbEntity
  8
02_µµ·Î¸é
  6
CONTINUOUS
420
0
100
AcDbPolyline
 90
5
 70
129
 43
-1.0
 10
946634.0
 20
1808404.0
 10
946686.0
 20
1808404.0
 10
946686.0
 20
1808462.0
 10
946634.0
 20
1808462.0
 10
946634.0
 20
1808404.0
  0
LWPOLYLINE
  5
99
330
6d
100
AcDbEntity
  8
02_µµ·Î¸é
  6
CONTINUOUS
420
0
100
AcDbPolyline
 90
5
 70
129
 43
-1.0
 10
946694.0
 20
1808404.0
 10
946767.0
 20
1808404.0
 10
946767.0
 20
1808462.0
 10
946694.0
 20
1808462.0
 10
946694.0
 20
1808404.0
  0
LWPOLYLINE
  5
9a
330
6d
100
AcDbEntity
  8
03_°¡±¸
  6
CONTINUOUS
420
0
100
AcDbPolyline
 90
8
 70
129
 43
-1.0
 10
946622.0489894262
 20
1808519.4883106698
 10
946682.0342471134
 20
1808518.4348783055
 10
946686.0
 20
1808518.4809022578
 10
946686.0
 20
1808468.0
 10
946571.9033802308
 20
1808468.0
 10
946556.0954389755
 20
1808520.7545708986
 10
946545.5957301841
 20
1808520.9561576755
 10
946622.0489894262
 20
1808519.4883106698
  0
LWPOLYLINE
  5
9b
330
6d
100
AcDbEntity
  8
03_°¡±¸
  6
CONTINUOUS
420
0
100
AcDbPolyline
 90
11
 70
129
 43
-1.0
 10
946761.9428152444
 20
1808516.064113481
 10
946785.430650896
 20
1808515.9888693516
 10
946787.6951168309
 20
1808507.0435716906
 10
946786.7843399502
 20
1808497.649306735
 10
946789.049880692
 20
1808484.033747788
 10
946788.9562683082
 20
1808468.0
 10
946694.0
 20
1808468.0
 10
946694.0
 20
1808518.52732366
 10
946689.9999999907
 20
1808518.52732366
 10
946722.0058159133
 20
1808518.898762373
 10
946761.9428152444
 20
1808516.064113481
  0
LWPOLYLINE
  5
9c
330
6d
100
AcDbEntity
  8
03_°¡±¸
  6
CONTINUOUS
420
0
100
AcDbPolyline
 90
5
 70
129
 43
-1.0
 10
946630.0
 20
1808462.0
 10
946630.0
 20
1808404.0
 10
946591.0810215822
 20
1808404.0
 10
946573.7012841075
 20
1808462.0
 10
946630.0
 20
1808462.0
  0
LWPOLYLINE
  5
9d
330
6d
100
AcDbEntity
  8
03_°¡±¸
  6
CONTINUOUS
420
0
100
AcDbPolyline
 90
5
 70
129
 43
-1.0
 10
946686.0
 20
1808462.0
 10
946686.0
 20
1808404.0
 10
946634.0
 20
1808404.0
 10
946634.0
 20
1808462.0
 10
946686.0
 20
1808462.0
  0
LWPOLYLINE
  5
9e
330
6d
100
AcDbEntity
  8
03_°¡±¸
  6
CONTINUOUS
420
0
100
AcDbPolyline
 90
5
 70
129
 43
-1.0
 10
946767.0
 20
1808462.0
 10
946767.0
 20
1808404.0
 10
946694.0
 20
1808404.0
 10
946694.0
 20
1808462.0
 10
946767.0
 20
1808462.0
  0
LWPOLYLINE
  5
9f
330
6d
100
AcDbEntity
  8
03_°¡±¸
  6
CONTINUOUS
420
0
100
AcDbPolyline
 90
22
 70
129
 43
-1.0
 10
946814.7034911045
 20
1808426.5349665098
 10
946830.5363712233
 20
1808431.367704521
 10
946841.9614997177
 20
1808434.2640243329
 10
946848.6467630386
 20
1808434.3773573786
 10
946858.1681231069
 20
1808434.5576714054
 10
946872.9989602482
 20
1808432.9873276502
 10
946878.9725156965
 20
1808432.3548255593
 10
946878.5018237412
 20
1808426.7208103582
 10
946877.6376012631
 20
1808415.5214950447
 10
946876.8451983787
 20
1808404.3161950633
 10
946876.5677586871
 20
1808399.999999999
 10
946876.5677586871
 20
1808404.0
 10
946773.0
 20
1808404.0
 10
946773.0
 20
1808462.0
 10
946789.5552889503
 20
1808462.0
 10
946784.8702651302
 20
1808457.1321251167
 10
946782.2382431761
 20
1808445.9358674155
 10
946779.534365809
 20
1808436.062283488
 10
946789.7486507756
 20
1808432.342575666
 10
946792.3849201803
 20
1808423.970423242
 10
946794.0337484109
 20
1808417.6054096443
 10
946814.7034911045
 20
1808426.5349665098
  0
LWPOLYLINE
  5
a0
330
6d
100
AcDbEntity
  8
03_°¡±¸
  6
CONTINUOUS
420
0
100
AcDbPolyline
 90
5
 70
129
 43
-1.0
 10
946630.0
 20
1808396.0
 10
946630.0
 20
1808353.0
 10
946606.3632045342
 20
1808353.0
 10
946593.4782267512
 20
1808396.0
 10
946630.0
 20
1808396.0
  0
LWPOLYLINE
  5
a1
330
6d
100
AcDbEntity
  8
03_°¡±¸
  6
CONTINUOUS
420
0
100
AcDbPolyline
 90
5
 70
129
 43
-1.0
 10
946686.0
 20
1808396.0
 10
946686.0
 20
1808353.0
 10
946634.0
 20
1808353.0
 10
946634.0
 20
1808396.0
 10
946686.0
 20
1808396.0
  0
LWPOLYLINE
  5
a2
330
6d
100
AcDbEntity
  8
03_°¡±¸
  6
CONTINUOUS
420
0
100
AcDbPolyline
 90
5
 70
129
 43
-1.0
 10
946767.0
 20
1808396.0
 10
946767.0
 20
1808353.0
 10
946694.0
 20
1808353.0
 10
946694.0
 20
1808396.0
 10
946767.0
 20
1808396.0
  0
LWPOLYLINE
  5
a3
330
6d
100
AcDbEntity
  8
03_°¡±¸
  6
CONTINUOUS
420
0
100
AcDbPolyline
 90
10
 70
129
 43
-1.0
 10
946875.4749813981
 20
1808381.8920833943
 10
946874.8980660513
 20
1808370.6732661896
 10
946874.3938899271
 20
1808359.4517864215
 10
946874.0290665127
 20
1808349.9999999995
 10
946874.0290665127
 20
1808353.0
 10
946773.0
 20
1808353.0
 10
946773.0
 20
1808396.0
 10
946876.310643624
 20
1808396.0
 10
946876.1246221369
 20
1808393.1060196192
 10
946875.4749813981
 20
1808381.8920833943
  0
LWPOLYLINE
  5
a4
330
6d
100
AcDbEntity
  8
03_°¡±¸
  6
CONTINUOUS
420
0
100
AcDbPolyline
 90
5
 70
129
 43
-1.0
 10
946686.0
 20
1808347.0
 10
946686.0
 20
1808314.0
 10
946618.0495797327
 20
1808314.0
 10
946608.1611084108
 20
1808347.0
 10
946686.0
 20
1808347.0
  0
LWPOLYLINE
  5
a5
330
6d
100
AcDbEntity
  8
03_°¡±¸
  6
CONTINUOUS
420
0
100
AcDbPolyline
 90
35
 70
129
 43
-1.0
 10
946873.606968752
 20
1808337.232653991
 10
946871.5886598922
 20
1808311.940640187
 10
946871.146748092
 20
1808308.2672659708
 10
946870.1523916108
 20
1808303.4125809832
 10
946868.9911987149
 20
1808298.5966298503
 10
946868.5059766686
 20
1808296.852763938
 10
946865.9632056998
 20
1808301.5313584646
 10
946863.0043564645
 20
1808301.8156539903
 10
946858.0517299104
 20
1808306.1198715915
 10
946841.0425937241
 20
1808320.793875647
 10
946837.3568975746
 20
1808321.9300934046
 10
946832.1295033732
 20
1808309.9332735287
 10
946824.7863275959
 20
1808301.24720778
 10
946815.9847364614
 20
1808308.0419644145
 10
946787.1534681745
 20
1808324.9758178433
 10
946781.3617418993
 20
1808327.632422043
 10
946779.6446568274
 20
1808328.4216251883
 10
946764.7453394351
 20
1808339.2304276768
 10
946749.5496943276
 20
1808323.9302938678
 10
946745.8263561466
 20
1808318.3291603094
 10
946744.380354232
 20
1808316.1538881222
 10
946742.1544714008
 20
1808314.824207056
 10
946734.6857089284
 20
1808318.6480643959
 10
946724.1630009892
 20
1808324.0923978905
 10
946716.1905396279
 20
1808328.8278371608
 10
946708.4545298157
 20
1808298.4095112605
 10
946707.758508509
 20
1808288.604624544
 10
946698.7362555129
 20
1808287.374276337
 10
946694.0
 20
1808286.7279640702
 10
946694.0
 20
1808310.0
 10
946694.0
 20
1808314.0
 10
946694.0
 20
1808347.0
 10
946873.9210482412
 20
1808347.0
 10
946873.8033251205
 20
1808343.351218533
 10
946873.606968752
 20
1808337.232653991
  0
LWPOLYLINE
  5
a6
330
6d
100
AcDbEntity
  8
03_°¡±¸
  6
CONTINUOUS
420
0
100
AcDbPolyline
 90
9
 70
129
 43
-1.0
 10
946667.4097689822
 20
1808284.6655822417
 10
946657.8928966557
 20
1808285.245287008
 10
946629.2491076933
 20
1808276.6247161292
 10
946619.2481823171
 20
1808310.0
 10
946686.0
 20
1808310.0
 10
946686.0
 20
1808286.1821216722
 10
946690.0000000005
 20
1808286.1821216722
 10
946672.0686162893
 20
1808283.7351943008
 10
946667.4097689822
 20
1808284.6655822417
  0
LWPOLYLINE
  5
a7
330
6d
100
AcDbEntity
  8
04_È¹Áö
  6
CONTINUOUS
420
0
100
AcDbPolyline
 90
5
 70
129
 43
-1.0
 10
946559.5246419583
 20
1808509.310567599
 10
946556.0954389755
 20
1808520.7545708986
 10
946545.5957301841
 20
1808520.9561576755
 10
946559.7243924943
 20
1808520.6848976288
 10
946559.5246419583
 20
1808509.310567599
  0
LWPOLYLINE
  5
a8
330
6d
100
AcDbEntity
  8
04_È¹Áö
  6
CONTINUOUS
420
0
100
AcDbPolyline
 90
6
 70
129
 43
-1.0
 10
946563.9968195894
 20
1808494.385928894
 10
946559.5246419583
 20
1808509.310567599
 10
946559.7243924943
 20
1808520.6848976288
 10
946573.8530548046
 20
1808520.4136375822
 10
946573.3930707813
 20
1808494.220916431
 10
946563.9968195894
 20
1808494.385928894
  0
LWPOLYLINE
  5
a9
330
6d
100
AcDbEntity
  8
04_È¹Áö
  6
CONTINUOUS
420
0
100
AcDbPolyline
 90
5
 70
129
 43
-1.0
 10
946573.8530548046
 20
1808520.4136375822
 10
946587.9817171148
 20
1808520.1423775356
 10
946587.5221393266
 20
1808493.9727884966
 10
946573.3930707813
 20
1808494.220916431
 10
946573.8530548046
 20
1808520.4136375822
  0
LWPOLYLINE
  5
aa
330
6d
100
AcDbEntity
  8
04_È¹Áö
  6
CONTINUOUS
420
0
100
AcDbPolyline
 90
5
 70
129
 43
-1.0
 10
946587.9817171148
 20
1808520.1423775356
 10
946602.110379425
 20
1808519.871117489
 10
946601.6512078719
 20
1808493.7246605624
 10
946587.5221393266
 20
1808493.9727884966
 10
946587.9817171148
 20
1808520.1423775356
  0
LWPOLYLINE
  5
ab
330
6d
100
AcDbEntity
  8
04_È¹Áö
  6
CONTINUOUS
420
0
100
AcDbPolyline
 90
5
 70
129
 43
-1.0
 10
946602.110379425
 20
1808519.871117489
 10
946616.2390417352
 20
1808519.5998574423
 10
946615.7802764173
 20
1808493.4765326278
 10
946601.6512078719
 20
1808493.7246605624
 10
946602.110379425
 20
1808519.871117489
  0
LWPOLYLINE
  5
ac
330
6d
100
AcDbEntity
  8
04_È¹Áö
  6
CONTINUOUS
420
0
100
AcDbPolyline
 90
6
 70
129
 43
-1.0
 10
946622.0489894262
 20
1808519.4883106698
 10
946630.3679432297
 20
1808519.3422171876
 10
946629.9093449624
 20
1808493.2284046935
 10
946615.7802764173
 20
1808493.4765326278
 10
946616.2390417352
 20
1808519.5998574423
 10
946622.0489894262
 20
1808519.4883106698
  0
LWPOLYLINE
  5
ad
330
6d
100
AcDbEntity
  8
04_È¹Áö
  6
CONTINUOUS
420
0
100
AcDbPolyline
 90
5
 70
129
 43
-1.0
 10
946630.3679432297
 20
1808519.3422171876
 10
946644.497011775
 20
1808519.0940892533
 10
946644.0384135077
 20
1808492.9802767592
 10
946629.9093449624
 20
1808493.2284046935
 10
946630.3679432297
 20
1808519.3422171876
  0
LWPOLYLINE
  5
ae
330
6d
100
AcDbEntity
  8
04_È¹Áö
  6
CONTINUOUS
420
0
100
AcDbPolyline
 90
5
 70
129
 43
-1.0
 10
946644.497011775
 20
1808519.0940892533
 10
946658.6260803204
 20
1808518.8459613188
 10
946658.1674820533
 20
1808492.732148825
 10
946644.0384135077
 20
1808492.9802767592
 10
946644.497011775
 20
1808519.0940892533
  0
LWPOLYLINE
  5
af
330
6d
100
AcDbEntity
  8
04_È¹Áö
  6
CONTINUOUS
420
0
100
AcDbPolyline
 90
5
 70
129
 43
-1.0
 10
946658.6260803204
 20
1808518.8459613188
 10
946672.7551488657
 20
1808518.5978333845
 10
946672.2965505985
 20
1808492.4840208904
 10
946658.1674820533
 20
1808492.732148825
 10
946658.6260803204
 20
1808518.8459613188
  0
LWPOLYLINE
  5
b0
330
6d
100
AcDbEntity
  8
04_È¹Áö
  6
CONTINUOUS
420
0
100
AcDbPolyline
 90
6
 70
129
 43
-1.0
 10
946672.7551488657
 20
1808518.5978333845
 10
946682.0342471134
 20
1808518.4348783055
 10
946686.0
 20
1808518.4809022578
 10
946686.0
 20
1808492.2433674757
 10
946672.2965505985
 20
1808492.4840208904
 10
946672.7551488657
 20
1808518.5978333845
  0
LWPOLYLINE
  5
b1
330
6d
100
AcDbEntity
  8
04_È¹Áö
  6
CONTINUOUS
420
0
100
AcDbPolyline
 90
5
 70
129
 43
-1.0
 10
946572.932591606
 20
1808468.0
 10
946571.9033802308
 20
1808468.0
 10
946563.9968195894
 20
1808494.385928894
 10
946573.3930707813
 20
1808494.220916431
 10
946572.932591606
 20
1808468.0
  0
LWPOLYLINE
  5
b2
330
6d
100
AcDbEntity
  8
04_È¹Áö
  6
CONTINUOUS
420
0
100
AcDbPolyline
 90
5
 70
129
 43
-1.0
 10
946587.0660176553
 20
1808468.0
 10
946572.932591606
 20
1808468.0
 10
946573.3930707813
 20
1808494.220916431
 10
946587.5221393266
 20
1808493.9727884966
 10
946587.0660176553
 20
1808468.0
  0
LWPOLYLINE
  5
b3
330
6d
100
AcDbEntity
  8
04_È¹Áö
  6
CONTINUOUS
420
0
100
AcDbPolyline
 90
5
 70
129
 43
-1.0
 10
946601.1994437046
 20
1808468.0
 10
946587.0660176553
 20
1808468.0
 10
946587.5221393266
 20
1808493.9727884966
 10
946601.6512078719
 20
1808493.7246605624
 10
946601.1994437046
 20
1808468.0
  0
LWPOLYLINE
  5
b4
330
6d
100
AcDbEntity
  8
04_È¹Áö
  6
CONTINUOUS
420
0
100
AcDbPolyline
 90
5
 70
129
 43
-1.0
 10
946615.3328697537
 20
1808468.0
 10
946601.1994437046
 20
1808468.0
 10
946601.6512078719
 20
1808493.7246605624
 10
946615.7802764173
 20
1808493.4765326278
 10
946615.3328697537
 20
1808468.0
  0
LWPOLYLINE
  5
b5
330
6d
100
AcDbEntity
  8
04_È¹Áö
  6
CONTINUOUS
420
0
100
AcDbPolyline
 90
5
 70
129
 43
-1.0
 10
946629.466295803
 20
1808468.0
 10
946615.3328697537
 20
1808468.0
 10
946615.7802764173
 20
1808493.4765326278
 10
946629.9093449624
 20
1808493.2284046935
 10
946629.466295803
 20
1808468.0
  0
LWPOLYLINE
  5
b6
330
6d
100
AcDbEntity
  8
04_È¹Áö
  6
CONTINUOUS
420
0
100
AcDbPolyline
 90
5
 70
129
 43
-1.0
 10
946643.5997218522
 20
1808468.0
 10
946629.466295803
 20
1808468.0
 10
946629.9093449624
 20
1808493.2284046935
 10
946644.0384135077
 20
1808492.9802767592
 10
946643.5997218522
 20
1808468.0
  0
LWPOLYLINE
  5
b7
330
6d
100
AcDbEntity
  8
04_È¹Áö
  6
CONTINUOUS
420
0
100
AcDbPolyline
 90
5
 70
129
 43
-1.0
 10
946657.7331479016
 20
1808468.0
 10
946643.5997218522
 20
1808468.0
 10
946644.0384135077
 20
1808492.9802767592
 10
946658.1674820533
 20
1808492.732148825
 10
946657.7331479016
 20
1808468.0
  0
LWPOLYLINE
  5
b8
330
6d
100
AcDbEntity
  8
04_È¹Áö
  6
CONTINUOUS
420
0
100
AcDbPolyline
 90
5
 70
129
 43
-1.0
 10
946671.8665739509
 20
1808468.0
 10
946657.7331479016
 20
1808468.0
 10
946658.1674820533
 20
1808492.732148825
 10
946672.2965505985
 20
1808492.4840208904
 10
946671.8665739509
 20
1808468.0
  0
LWPOLYLINE
  5
b9
330
6d
100
AcDbEntity
  8
04_È¹Áö
  6
CONTINUOUS
420
0
100
AcDbPolyline
 90
5
 70
129
 43
-1.0
 10
946686.0
 20
1808492.2433674757
 10
946686.0
 20
1808468.0
 10
946671.8665739509
 20
1808468.0
 10
946672.2965505985
 20
1808492.4840208904
 10
946686.0
 20
1808492.2433674757
  0
LWPOLYLINE
  5
ba
330
6d
100
AcDbEntity
  8
04_È¹Áö
  6
CONTINUOUS
420
0
100
AcDbPolyline
 90
6
 70
129
 43
-1.0
 10
946787.4831803342
 20
1808493.4493811866
 10
946789.049880692
 20
1808484.033747788
 10
946788.9562683082
 20
1808468.0
 10
946774.8998977348
 20
1808468.0
 10
946774.8998977348
 20
1808493.4493811866
 10
946787.4831803342
 20
1808493.4493811866
  0
LWPOLYLINE
  5
bb
330
6d
100
AcDbEntity
  8
04_È¹Áö
  6
CONTINUOUS
420
0
100
AcDbPolyline
 90
5
 70
129
 43
-1.0
 10
946774.8998977348
 20
1808468.0
 10
946760.7499147773
 20
1808468.0
 10
946760.7499147773
 20
1808493.4493811866
 10
946774.8998977348
 20
1808493.4493811866
 10
946774.8998977348
 20
1808468.0
  0
LWPOLYLINE
  5
bc
330
6d
100
AcDbEntity
  8
04_È¹Áö
  6
CONTINUOUS
420
0
100
AcDbPolyline
 90
5
 70
129
 43
-1.0
 10
946760.7499147773
 20
1808468.0
 10
946746.5999318201
 20
1808468.0
 10
946746.5999318201
 20
1808493.4493811866
 10
946760.7499147773
 20
1808493.4493811866
 10
946760.7499147773
 20
1808468.0
  0
LWPOLYLINE
  5
bd
330
6d
100
AcDbEntity
  8
04_È¹Áö
  6
CONTINUOUS
420
0
100
AcDbPolyline
 90
5
 70
129
 43
-1.0
 10
946746.5999318201
 20
1808468.0
 10
946732.4499488627
 20
1808468.0
 10
946732.4499488627
 20
1808493.4493811866
 10
946746.5999318201
 20
1808493.4493811866
 10
946746.5999318201
 20
1808468.0
  0
LWPOLYLINE
  5
be
330
6d
100
AcDbEntity
  8
04_È¹Áö
  6
CONTINUOUS
420
0
100
AcDbPolyline
 90
5
 70
129
 43
-1.0
 10
946732.4499488627
 20
1808468.0
 10
946718.2999659054
 20
1808468.0
 10
946718.2999659054
 20
1808493.4493811866
 10
946732.4499488627
 20
1808493.4493811866
 10
946732.4499488627
 20
1808468.0
  0
LWPOLYLINE
  5
bf
330
6d
100
AcDbEntity
  8
04_È¹Áö
  6
CONTINUOUS
420
0
100
AcDbPolyline
 90
5
 70
129
 43
-1.0
 10
946718.2999659054
 20
1808468.0
 10
946704.149982948
 20
1808468.0
 10
946704.149982948
 20
1808493.4493811866
 10
946718.2999659054
 20
1808493.4493811866
 10
946718.2999659054
 20
1808468.0
  0
LWPOLYLINE
  5
c0
330
6d
100
AcDbEntity
  8
04_È¹Áö
  6
CONTINUOUS
420
0
100
AcDbPolyline
 90
5
 70
129
 43
-1.0
 10
946704.149982948
 20
1808468.0
 10
946694.0
 20
1808468.0
 10
946694.0
 20
1808493.4493811866
 10
946704.149982948
 20
1808493.4493811866
 10
946704.149982948
 20
1808468.0
  0
LWPOLYLINE
  5
c1
330
6d
100
AcDbEntity
  8
04_È¹Áö
  6
CONTINUOUS
420
0
100
AcDbPolyline
 90
7
 70
129
 43
-1.0
 10
946774.8998977348
 20
1808516.0226049994
 10
946785.430650896
 20
1808515.9888693516
 10
946787.6951168309
 20
1808507.0435716906
 10
946786.7843399502
 20
1808497.649306735
 10
946787.4831803342
 20
1808493.4493811866
 10
946774.8998977348
 20
1808493.4493811866
 10
946774.8998977348
 20
1808516.0226049994
  0
LWPOLYLINE
  5
c2
330
6d
100
AcDbEntity
  8
04_È¹Áö
  6
CONTINUOUS
420
0
100
AcDbPolyline
 90
6
 70
129
 43
-1.0
 10
946761.9428152444
 20
1808516.064113481
 10
946774.8998977348
 20
1808516.0226049994
 10
946774.8998977348
 20
1808493.4493811866
 10
946760.7499147773
 20
1808493.4493811866
 10
946760.7499147773
 20
1808516.148783187
 10
946761.9428152444
 20
1808516.064113481
  0
LWPOLYLINE
  5
c3
330
6d
100
AcDbEntity
  8
04_È¹Áö
  6
CONTINUOUS
420
0
100
AcDbPolyline
 90
5
 70
129
 43
-1.0
 10
946746.5999318201
 20
1808517.1531208733
 10
946760.7499147773
 20
1808516.148783187
 10
946760.7499147773
 20
1808493.4493811866
 10
946746.5999318201
 20
1808493.4493811866
 10
946746.5999318201
 20
1808517.1531208733
  0
LWPOLYLINE
  5
c4
330
6d
100
AcDbEntity
  8
04_È¹Áö
  6
CONTINUOUS
420
0
100
AcDbPolyline
 90
5
 70
129
 43
-1.0
 10
946732.4499488627
 20
1808518.1574585598
 10
946746.5999318201
 20
1808517.1531208733
 10
946746.5999318201
 20
1808493.4493811866
 10
946732.4499488627
 20
1808493.4493811866
 10
946732.4499488627
 20
1808518.1574585598
  0
LWPOLYLINE
  5
c5
330
6d
100
AcDbEntity
  8
04_È¹Áö
  6
CONTINUOUS
420
0
100
AcDbPolyline
 90
6
 70
129
 43
-1.0
 10
946718.2999659054
 20
1808518.8557546847
 10
946722.0058159133
 20
1808518.898762373
 10
946732.4499488627
 20
1808518.1574585598
 10
946732.4499488627
 20
1808493.4493811866
 10
946718.2999659054
 20
1808493.4493811866
 10
946718.2999659054
 20
1808518.8557546847
  0
LWPOLYLINE
  5
c6
330
6d
100
AcDbEntity
  8
04_È¹Áö
  6
CONTINUOUS
420
0
100
AcDbPolyline
 90
5
 70
129
 43
-1.0
 10
946704.149982948
 20
1808518.6915391723
 10
946718.2999659054
 20
1808518.8557546847
 10
946718.2999659054
 20
1808493.4493811866
 10
946704.149982948
 20
1808493.4493811866
 10
946704.149982948
 20
1808518.6915391723
  0
LWPOLYLINE
  5
c7
330
6d
100
AcDbEntity
  8
04_È¹Áö
  6
CONTINUOUS
420
0
100
AcDbPolyline
 90
6
 70
129
 43
-1.0
 10
946694.0
 20
1808493.4493811866
 10
946694.0
 20
1808518.52732366
 10
946689.9999999907
 20
1808518.52732366
 10
946704.149982948
 20
1808518.6915391723
 10
946704.149982948
 20
1808493.4493811866
 10
946694.0
 20
1808493.4493811866
  0
LWPOLYLINE
  5
c8
330
6d
100
AcDbEntity
  8
04_È¹Áö
  6
CONTINUOUS
420
0
100
AcDbPolyline
 90
5
 70
129
 43
-1.0
 10
946582.3911528449
 20
1808433.0
 10
946573.7012841075
 20
1808462.0
 10
946587.7759630806
 20
1808462.0
 10
946587.7759630806
 20
1808433.0
 10
946582.3911528449
 20
1808433.0
  0
LWPOLYLINE
  5
c9
330
6d
100
AcDbEntity
  8
04_È¹Áö
  6
CONTINUOUS
420
0
100
AcDbPolyline
 90
5
 70
129
 43
-1.0
 10
946587.7759630806
 20
1808462.0
 10
946601.8506420538
 20
1808462.0
 10
946601.8506420538
 20
1808433.0
 10
946587.7759630806
 20
1808433.0
 10
946587.7759630806
 20
1808462.0
  0
LWPOLYLINE
  5
ca
330
6d
100
AcDbEntity
  8
04_È¹Áö
  6
CONTINUOUS
420
0
100
AcDbPolyline
 90
5
 70
129
 43
-1.0
 10
946601.8506420538
 20
1808462.0
 10
946615.9253210269
 20
1808462.0
 10
946615.9253210269
 20
1808433.0
 10
946601.8506420538
 20
1808433.0
 10
946601.8506420538
 20
1808462.0
  0
LWPOLYLINE
  5
cb
330
6d
100
AcDbEntity
  8
04_È¹Áö
  6
CONTINUOUS
420
0
100
AcDbPolyline
 90
5
 70
129
 43
-1.0
 10
946630.0
 20
1808462.0
 10
946630.0
 20
1808433.0
 10
946615.9253210269
 20
1808433.0
 10
946615.9253210269
 20
1808462.0
 10
946630.0
 20
1808462.0
  0
LWPOLYLINE
  5
cc
330
6d
100
AcDbEntity
  8
04_È¹Áö
  6
CONTINUOUS
420
0
100
AcDbPolyline
 90
4
 70
129
 43
-1.0
 10
946587.7759630806
 20
1808415.0297059075
 10
946582.3911528449
 20
1808433.0
 10
946587.7759630806
 20
1808433.0
 10
946587.7759630806
 20
1808415.0297059075
  0
LWPOLYLINE
  5
cd
330
6d
100
AcDbEntity
  8
04_È¹Áö
  6
CONTINUOUS
420
0
100
AcDbPolyline
 90
6
 70
129
 43
-1.0
 10
946601.8506420538
 20
1808404.0
 10
946591.0810215822
 20
1808404.0
 10
946587.7759630806
 20
1808415.0297059075
 10
946587.7759630806
 20
1808433.0
 10
946601.8506420538
 20
1808433.0
 10
946601.8506420538
 20
1808404.0
  0
LWPOLYLINE
  5
ce
330
6d
100
AcDbEntity
  8
04_È¹Áö
  6
CONTINUOUS
420
0
100
AcDbPolyline
 90
5
 70
129
 43
-1.0
 10
946615.9253210269
 20
1808404.0
 10
946601.8506420538
 20
1808404.0
 10
946601.8506420538
 20
1808433.0
 10
946615.9253210269
 20
1808433.0
 10
946615.9253210269
 20
1808404.0
  0
LWPOLYLINE
  5
cf
330
6d
100
AcDbEntity
  8
04_È¹Áö
  6
CONTINUOUS
420
0
100
AcDbPolyline
 90
5
 70
129
 43
-1.0
 10
946630.0
 20
1808433.0
 10
946630.0
 20
1808404.0
 10
946615.9253210269
 20
1808404.0
 10
946615.9253210269
 20
1808433.0
 10
946630.0
 20
1808433.0
  0
LWPOLYLINE
  5
d0
330
6d
100
AcDbEntity
  8
04_È¹Áö
  6
CONTINUOUS
420
0
100
AcDbPolyline
 90
5
 70
129
 43
-1.0
 10
946686.0
 20
1808462.0
 10
946686.0
 20
1808447.5
 10
946660.0
 20
1808447.5
 10
946660.0
 20
1808462.0
 10
946686.0
 20
1808462.0
  0
LWPOLYLINE
  5
d1
330
6d
100
AcDbEntity
  8
04_È¹Áö
  6
CONTINUOUS
420
0
100
AcDbPolyline
 90
5
 70
129
 43
-1.0
 10
946686.0
 20
1808447.5
 10
946686.0
 20
1808433.0
 10
946660.0
 20
1808433.0
 10
946660.0
 20
1808447.5
 10
946686.0
 20
1808447.5
  0
LWPOLYLINE
  5
d2
330
6d
100
AcDbEntity
  8
04_È¹Áö
  6
CONTINUOUS
420
0
100
AcDbPolyline
 90
5
 70
129
 43
-1.0
 10
946686.0
 20
1808433.0
 10
946686.0
 20
1808418.5
 10
946660.0
 20
1808418.5
 10
946660.0
 20
1808433.0
 10
946686.0
 20
1808433.0
  0
LWPOLYLINE
  5
d3
330
6d
100
AcDbEntity
  8
04_È¹Áö
  6
CONTINUOUS
420
0
100
AcDbPolyline
 90
5
 70
129
 43
-1.0
 10
946686.0
 20
1808418.5
 10
946686.0
 20
1808404.0
 10
946660.0
 20
1808404.0
 10
946660.0
 20
1808418.5
 10
946686.0
 20
1808418.5
  0
LWPOLYLINE
  5
d4
330
6d
100
AcDbEntity
  8
04_È¹Áö
  6
CONTINUOUS
420
0
100
AcDbPolyline
 90
5
 70
129
 43
-1.0
 10
946634.0
 20
1808447.5
 10
946634.0
 20
1808462.0
 10
946660.0
 20
1808462.0
 10
946660.0
 20
1808447.5
 10
946634.0
 20
1808447.5
  0
LWPOLYLINE
  5
d5
330
6d
100
AcDbEntity
  8
04_È¹Áö
  6
CONTINUOUS
420
0
100
AcDbPolyline
 90
5
 70
129
 43
-1.0
 10
946634.0
 20
1808433.0
 10
946634.0
 20
1808447.5
 10
946660.0
 20
1808447.5
 10
946660.0
 20
1808433.0
 10
946634.0
 20
1808433.0
  0
LWPOLYLINE
  5
d6
330
6d
100
AcDbEntity
  8
04_È¹Áö
  6
CONTINUOUS
420
0
100
AcDbPolyline
 90
5
 70
129
 43
-1.0
 10
946634.0
 20
1808418.5
 10
946634.0
 20
1808433.0
 10
946660.0
 20
1808433.0
 10
946660.0
 20
1808418.5
 10
946634.0
 20
1808418.5
  0
LWPOLYLINE
  5
d7
330
6d
100
AcDbEntity
  8
04_È¹Áö
  6
CONTINUOUS
420
0
100
AcDbPolyline
 90
5
 70
129
 43
-1.0
 10
946660.0
 20
1808404.0
 10
946634.0
 20
1808404.0
 10
946634.0
 20
1808418.5
 10
946660.0
 20
1808418.5
 10
946660.0
 20
1808404.0
  0
LWPOLYLINE
  5
d8
330
6d
100
AcDbEntity
  8
04_È¹Áö
  6
CONTINUOUS
420
0
100
AcDbPolyline
 90
10
 70
129
 43
-1.0
 10
946773.0
 20
1808430.9999999995
 10
946773.0
 20
1808462.0
 10
946786.2465644621
 20
1808462.0
 10
946786.2465644621
 20
1808458.5621398203
 10
946784.8702651302
 20
1808457.1321251167
 10
946782.2382431761
 20
1808445.9358674155
 10
946779.534365809
 20
1808436.062283488
 10
946786.2465644621
 20
1808433.617920724
 10
946786.2465644621
 20
1808430.9999999995
 10
946773.0
 20
1808430.9999999995
  0
LWPOLYLINE
  5
d9
330
6d
100
AcDbEntity
  8
04_È¹Áö
  6
CONTINUOUS
420
0
100
AcDbPolyline
 90
7
 70
129
 43
-1.0
 10
946839.2328223103
 20
1808433.572292731
 10
946841.9614997177
 20
1808434.2640243329
 10
946848.6467630386
 20
1808434.3773573786
 10
946852.4793867724
 20
1808434.449939007
 10
946852.4793867724
 20
1808430.9999999995
 10
946839.2328223103
 20
1808430.9999999995
 10
946839.2328223103
 20
1808433.572292731
  0
LWPOLYLINE
  5
da
330
6d
100
AcDbEntity
  8
04_È¹Áö
  6
CONTINUOUS
420
0
100
AcDbPolyline
 90
6
 70
129
 43
-1.0
 10
946852.4793867724
 20
1808434.449939007
 10
946858.1681231069
 20
1808434.5576714054
 10
946865.7259512345
 20
1808433.7574206784
 10
946865.7259512345
 20
1808430.9999999995
 10
946852.4793867724
 20
1808430.9999999995
 10
946852.4793867724
 20
1808434.449939007
  0
LWPOLYLINE
  5
db
330
6d
100
AcDbEntity
  8
04_È¹Áö
  6
CONTINUOUS
420
0
100
AcDbPolyline
 90
6
 70
129
 43
-1.0
 10
946865.7259512345
 20
1808433.7574206784
 10
946872.9989602482
 20
1808432.9873276502
 10
946878.9725156965
 20
1808432.3548255593
 10
946878.8593272388
 20
1808430.9999999995
 10
946865.7259512345
 20
1808430.9999999995
 10
946865.7259512345
 20
1808433.7574206784
  0
LWPOLYLINE
  5
dc
330
6d
100
AcDbEntity
  8
04_È¹Áö
  6
CONTINUOUS
420
0
100
AcDbPolyline
 90
5
 70
129
 43
-1.0
 10
946786.2465644621
 20
1808404.0
 10
946773.0
 20
1808404.0
 10
946773.0
 20
1808430.9999999995
 10
946786.2465644621
 20
1808430.9999999995
 10
946786.2465644621
 20
1808404.0
  0
LWPOLYLINE
  5
dd
330
6d
100
AcDbEntity
  8
04_È¹Áö
  6
CONTINUOUS
420
0
100
AcDbPolyline
 90
8
 70
129
 43
-1.0
 10
946799.4931289242
 20
1808404.0
 10
946786.2465644621
 20
1808404.0
 10
946786.2465644621
 20
1808430.9999999995
 10
946790.1714083861
 20
1808430.9999999995
 10
946792.3849201803
 20
1808423.970423242
 10
946794.0337484109
 20
1808417.6054096443
 10
946799.4931289242
 20
1808419.9639222522
 10
946799.4931289242
 20
1808404.0
  0
LWPOLYLINE
  5
de
330
6d
100
AcDbEntity
  8
04_È¹Áö
  6
CONTINUOUS
420
0
100
AcDbPolyline
 90
5
 70
129
 43
-1.0
 10
946812.7396933862
 20
1808404.0
 10
946799.4931289242
 20
1808404.0
 10
946799.4931289242
 20
1808419.9639222522
 10
946812.7396933862
 20
1808425.6865842314
 10
946812.7396933862
 20
1808404.0
  0
LWPOLYLINE
  5
df
330
6d
100
AcDbEntity
  8
04_È¹Áö
  6
CONTINUOUS
420
0
100
AcDbPolyline
 90
6
 70
129
 43
-1.0
 10
946814.7034911045
 20
1808426.5349665098
 10
946825.9862578483
 20
1808429.9788538697
 10
946825.9862578483
 20
1808404.0
 10
946812.7396933862
 20
1808404.0
 10
946812.7396933862
 20
1808425.6865842314
 10
946814.7034911045
 20
1808426.5349665098
  0
LWPOLYLINE
  5
e0
330
6d
100
AcDbEntity
  8
04_È¹Áö
  6
CONTINUOUS
420
0
100
AcDbPolyline
 90
6
 70
129
 43
-1.0
 10
946825.9862578483
 20
1808429.9788538697
 10
946829.3317080296
 20
1808430.9999999995
 10
946839.2328223103
 20
1808430.9999999995
 10
946839.2328223103
 20
1808404.0
 10
946825.9862578483
 20
1808404.0
 10
946825.9862578483
 20
1808429.9788538697
  0
LWPOLYLINE
  5
e1
330
6d
100
AcDbEntity
  8
04_È¹Áö
  6
CONTINUOUS
420
0
100
AcDbPolyline
 90
5
 70
129
 43
-1.0
 10
946852.4793867724
 20
1808404.0
 10
946839.2328223103
 20
1808404.0
 10
946839.2328223103
 20
1808430.9999999995
 10
946852.4793867724
 20
1808430.9999999995
 10
946852.4793867724
 20
1808404.0
  0
LWPOLYLINE
  5
e2
330
6d
100
AcDbEntity
  8
04_È¹Áö
  6
CONTINUOUS
420
0
100
AcDbPolyline
 90
5
 70
129
 43
-1.0
 10
946865.7259512345
 20
1808404.0
 10
946852.4793867724
 20
1808404.0
 10
946852.4793867724
 20
1808430.9999999995
 10
946865.7259512345
 20
1808430.9999999995
 10
946865.7259512345
 20
1808404.0
  0
LWPOLYLINE
  5
e3
330
6d
100
AcDbEntity
  8
04_È¹Áö
  6
CONTINUOUS
420
0
100
AcDbPolyline
 90
9
 70
129
 43
-1.0
 10
946878.8593272388
 20
1808430.9999999995
 10
946878.5018237412
 20
1808426.7208103582
 10
946877.6376012631
 20
1808415.5214950447
 10
946876.8451983787
 20
1808404.3161950633
 10
946876.5677586871
 20
1808399.999999999
 10
946876.5677586871
 20
1808404.0
 10
946865.7259512345
 20
1808404.0
 10
946865.7259512345
 20
1808430.9999999995
 10
946878.8593272388
 20
1808430.9999999995
  0
LWPOLYLINE
  5
e4
330
6d
100
AcDbEntity
  8
04_È¹Áö
  6
CONTINUOUS
420
0
100
AcDbPolyline
 90
5
 70
129
 43
-1.0
 10
946599.9207156426
 20
1808374.5
 10
946593.4782267512
 20
1808396.0
 10
946605.6521511675
 20
1808396.0
 10
946605.6521511675
 20
1808374.5
 10
946599.9207156426
 20
1808374.5
  0
LWPOLYLINE
  5
e5
330
6d
100
AcDbEntity
  8
04_È¹Áö
  6
CONTINUOUS
420
0
100
AcDbPolyline
 90
5
 70
129
 43
-1.0
 10
946605.6521511675
 20
1808396.0
 10
946617.8260755837
 20
1808396.0
 10
946617.8260755837
 20
1808374.5
 10
946605.6521511675
 20
1808374.5
 10
946605.6521511675
 20
1808396.0
  0
LWPOLYLINE
  5
e6
330
6d
100
AcDbEntity
  8
04_È¹Áö
  6
CONTINUOUS
420
0
100
AcDbPolyline
 90
5
 70
129
 43
-1.0
 10
946630.0
 20
1808396.0
 10
946630.0
 20
1808374.5
 10
946617.8260755837
 20
1808374.5
 10
946617.8260755837
 20
1808396.0
 10
946630.0
 20
1808396.0
  0
LWPOLYLINE
  5
e7
330
6d
100
AcDbEntity
  8
04_È¹Áö
  6
CONTINUOUS
420
0
100
AcDbPolyline
 90
4
 70
129
 43
-1.0
 10
946605.6521511675
 20
1808355.3729412097
 10
946599.9207156426
 20
1808374.5
 10
946605.6521511675
 20
1808374.5
 10
946605.6521511675
 20
1808355.3729412097
  0
LWPOLYLINE
  5
e8
330
6d
100
AcDbEntity
  8
04_È¹Áö
  6
CONTINUOUS
420
0
100
AcDbPolyline
 90
6
 70
129
 43
-1.0
 10
946617.8260755837
 20
1808353.0
 10
946606.3632045342
 20
1808353.0
 10
946605.6521511675
 20
1808355.3729412097
 10
946605.6521511675
 20
1808374.5
 10
946617.8260755837
 20
1808374.5
 10
946617.8260755837
 20
1808353.0
  0
LWPOLYLINE
  5
e9
330
6d
100
AcDbEntity
  8
04_È¹Áö
  6
CONTINUOUS
420
0
100
AcDbPolyline
 90
5
 70
129
 43
-1.0
 10
946630.0
 20
1808374.5
 10
946630.0
 20
1808353.0
 10
946617.8260755837
 20
1808353.0
 10
946617.8260755837
 20
1808374.5
 10
946630.0
 20
1808374.5
  0
LWPOLYLINE
  5
ea
330
6d
100
AcDbEntity
  8
04_È¹Áö
  6
CONTINUOUS
420
0
100
AcDbPolyline
 90
5
 70
129
 43
-1.0
 10
946773.0
 20
1808372.9999999998
 10
946773.0
 20
1808396.0
 10
946787.7586633748
 20
1808396.0
 10
946787.7586633748
 20
1808372.9999999998
 10
946773.0
 20
1808372.9999999998
  0
LWPOLYLINE
  5
eb
330
6d
100
AcDbEntity
  8
04_È¹Áö
  6
CONTINUOUS
420
0
100
AcDbPolyline
 90
5
 70
129
 43
-1.0
 10
946787.7586633748
 20
1808396.0
 10
946802.5173267497
 20
1808396.0
 10
946802.5173267497
 20
1808372.9999999998
 10
946787.7586633748
 20
1808372.9999999998
 10
946787.7586633748
 20
1808396.0
  0
LWPOLYLINE
  5
ec
330
6d
100
AcDbEntity
  8
04_È¹Áö
  6
CONTINUOUS
420
0
100
AcDbPolyline
 90
5
 70
129
 43
-1.0
 10
946802.5173267497
 20
1808396.0
 10
946817.2759901246
 20
1808396.0
 10
946817.2759901246
 20
1808372.9999999998
 10
946802.5173267497
 20
1808372.9999999998
 10
946802.5173267497
 20
1808396.0
  0
LWPOLYLINE
  5
ed
330
6d
100
AcDbEntity
  8
04_È¹Áö
  6
CONTINUOUS
420
0
100
AcDbPolyline
 90
5
 70
129
 43
-1.0
 10
946817.2759901246
 20
1808396.0
 10
946832.0346534995
 20
1808396.0
 10
946832.0346534995
 20
1808372.9999999998
 10
946817.2759901246
 20
1808372.9999999998
 10
946817.2759901246
 20
1808396.0
  0
LWPOLYLINE
  5
ee
330
6d
100
AcDbEntity
  8
04_È¹Áö
  6
CONTINUOUS
420
0
100
AcDbPolyline
 90
5
 70
129
 43
-1.0
 10
946832.0346534995
 20
1808396.0
 10
946846.7933168743
 20
1808396.0
 10
946846.7933168743
 20
1808372.9999999998
 10
946832.0346534995
 20
1808372.9999999998
 10
946832.0346534995
 20
1808396.0
  0
LWPOLYLINE
  5
ef
330
6d
100
AcDbEntity
  8
04_È¹Áö
  6
CONTINUOUS
420
0
100
AcDbPolyline
 90
5
 70
129
 43
-1.0
 10
946846.7933168743
 20
1808396.0
 10
946861.5519802492
 20
1808396.0
 10
946861.5519802492
 20
1808372.9999999998
 10
946846.7933168743
 20
1808372.9999999998
 10
946846.7933168743
 20
1808396.0
  0
LWPOLYLINE
  5
f0
330
6d
100
AcDbEntity
  8
04_È¹Áö
  6
CONTINUOUS
420
0
100
AcDbPolyline
 90
7
 70
129
 43
-1.0
 10
946875.4749813981
 20
1808381.8920833943
 10
946875.0177157808
 20
1808372.9999999998
 10
946861.5519802492
 20
1808372.9999999998
 10
946861.5519802492
 20
1808396.0
 10
946876.310643624
 20
1808396.0
 10
946876.1246221369
 20
1808393.1060196192
 10
946875.4749813981
 20
1808381.8920833943
  0
LWPOLYLINE
  5
f1
330
6d
100
AcDbEntity
  8
04_È¹Áö
  6
CONTINUOUS
420
0
100
AcDbPolyline
 90
5
 70
129
 43
-1.0
 10
946787.7586633748
 20
1808353.0
 10
946773.0
 20
1808353.0
 10
946773.0
 20
1808372.9999999998
 10
946787.7586633748
 20
1808372.9999999998
 10
946787.7586633748
 20
1808353.0
  0
LWPOLYLINE
  5
f2
330
6d
100
AcDbEntity
  8
04_È¹Áö
  6
CONTINUOUS
420
0
100
AcDbPolyline
 90
5
 70
129
 43
-1.0
 10
946802.5173267497
 20
1808353.0
 10
946787.7586633748
 20
1808353.0
 10
946787.7586633748
 20
1808372.9999999998
 10
946802.5173267497
 20
1808372.9999999998
 10
946802.5173267497
 20
1808353.0
  0
LWPOLYLINE
  5
f3
330
6d
100
AcDbEntity
  8
04_È¹Áö
  6
CONTINUOUS
420
0
100
AcDbPolyline
 90
5
 70
129
 43
-1.0
 10
946817.2759901246
 20
1808353.0
 10
946802.5173267497
 20
1808353.0
 10
946802.5173267497
 20
1808372.9999999998
 10
946817.2759901246
 20
1808372.9999999998
 10
946817.2759901246
 20
1808353.0
  0
LWPOLYLINE
  5
f4
330
6d
100
AcDbEntity
  8
04_È¹Áö
  6
CONTINUOUS
420
0
100
AcDbPolyline
 90
5
 70
129
 43
-1.0
 10
946832.0346534995
 20
1808353.0
 10
946817.2759901246
 20
1808353.0
 10
946817.2759901246
 20
1808372.9999999998
 10
946832.0346534995
 20
1808372.9999999998
 10
946832.0346534995
 20
1808353.0
  0
LWPOLYLINE
  5
f5
330
6d
100
AcDbEntity
  8
04_È¹Áö
  6
CONTINUOUS
420
0
100
AcDbPolyline
 90
5
 70
129
 43
-1.0
 10
946846.7933168743
 20
1808353.0
 10
946832.0346534995
 20
1808353.0
 10
946832.0346534995
 20
1808372.9999999998
 10
946846.7933168743
 20
1808372.9999999998
 10
946846.7933168743
 20
1808353.0
  0
LWPOLYLINE
  5
f6
330
6d
100
AcDbEntity
  8
04_È¹Áö
  6
CONTINUOUS
420
0
100
AcDbPolyline
 90
5
 70
129
 43
-1.0
 10
946861.5519802492
 20
1808353.0
 10
946846.7933168743
 20
1808353.0
 10
946846.7933168743
 20
1808372.9999999998
 10
946861.5519802492
 20
1808372.9999999998
 10
946861.5519802492
 20
1808353.0
  0
LWPOLYLINE
  5
f7
330
6d
100
AcDbEntity
  8
04_È¹Áö
  6
CONTINUOUS
420
0
100
AcDbPolyline
 90
8
 70
129
 43
-1.0
 10
946875.0177157808
 20
1808372.9999999998
 10
946874.8980660513
 20
1808370.6732661896
 10
946874.3938899271
 20
1808359.4517864215
 10
946874.0290665127
 20
1808349.9999999995
 10
946874.0290665127
 20
1808353.0
 10
946861.5519802492
 20
1808353.0
 10
946861.5519802492
 20
1808372.9999999998
 10
946875.0177157808
 20
1808372.9999999998
  0
LWPOLYLINE
  5
f8
330
6d
100
AcDbEntity
  8
04_È¹Áö
  6
CONTINUOUS
420
0
100
AcDbPolyline
 90
5
 70
129
 43
-1.0
 10
946621.134257009
 20
1808314.0
 10
946618.0495797327
 20
1808314.0
 10
946608.1611084108
 20
1808347.0
 10
946621.134257009
 20
1808347.0
 10
946621.134257009
 20
1808314.0
  0
LWPOLYLINE
  5
f9
330
6d
100
AcDbEntity
  8
04_È¹Áö
  6
CONTINUOUS
420
0
100
AcDbPolyline
 90
5
 70
129
 43
-1.0
 10
946634.1074056072
 20
1808314.0
 10
946621.134257009
 20
1808314.0
 10
946621.134257009
 20
1808347.0
 10
946634.1074056072
 20
1808347.0
 10
946634.1074056072
 20
1808314.0
  0
LWPOLYLINE
  5
fa
330
6d
100
AcDbEntity
  8
04_È¹Áö
  6
CONTINUOUS
420
0
100
AcDbPolyline
 90
5
 70
129
 43
-1.0
 10
946647.0805542055
 20
1808314.0
 10
946634.1074056072
 20
1808314.0
 10
946634.1074056072
 20
1808347.0
 10
946647.0805542055
 20
1808347.0
 10
946647.0805542055
 20
1808314.0
  0
LWPOLYLINE
  5
fb
330
6d
100
AcDbEntity
  8
04_È¹Áö
  6
CONTINUOUS
420
0
100
AcDbPolyline
 90
5
 70
129
 43
-1.0
 10
946660.0537028036
 20
1808314.0
 10
946647.0805542055
 20
1808314.0
 10
946647.0805542055
 20
1808347.0
 10
946660.0537028036
 20
1808347.0
 10
946660.0537028036
 20
1808314.0
  0
LWPOLYLINE
  5
fc
330
6d
100
AcDbEntity
  8
04_È¹Áö
  6
CONTINUOUS
420
0
100
AcDbPolyline
 90
5
 70
129
 43
-1.0
 10
946673.0268514018
 20
1808314.0
 10
946660.0537028036
 20
1808314.0
 10
946660.0537028036
 20
1808347.0
 10
946673.0268514018
 20
1808347.0
 10
946673.0268514018
 20
1808314.0
  0
LWPOLYLINE
  5
fd
330
6d
100
AcDbEntity
  8
04_È¹Áö
  6
CONTINUOUS
420
0
100
AcDbPolyline
 90
5
 70
129
 43
-1.0
 10
946686.0
 20
1808347.0
 10
946686.0
 20
1808314.0
 10
946673.0268514018
 20
1808314.0
 10
946673.0268514018
 20
1808347.0
 10
946686.0
 20
1808347.0
  0
LWPOLYLINE
  5
fe
330
6d
100
AcDbEntity
  8
04_È¹Áö
  6
CONTINUOUS
420
0
100
AcDbPolyline
 90
9
 70
129
 43
-1.0
 10
946707.840080634
 20
1808289.75373512
 10
946707.758508509
 20
1808288.604624544
 10
946698.7362555129
 20
1808287.374276337
 10
946694.0
 20
1808286.7279640702
 10
946694.0
 20
1808310.0
 10
946694.0
 20
1808314.0
 10
946694.0
 20
1808347.0
 10
946707.840080634
 20
1808347.0
 10
946707.840080634
 20
1808289.75373512
  0
LWPOLYLINE
  5
ff
330
6d
100
AcDbEntity
  8
04_È¹Áö
  6
CONTINUOUS
420
0
100
AcDbPolyline
 90
7
 70
129
 43
-1.0
 10
946721.6801612679
 20
1808325.5671415343
 10
946716.1905396279
 20
1808328.8278371608
 10
946708.4545298157
 20
1808298.4095112605
 10
946707.840080634
 20
1808289.75373512
 10
946707.840080634
 20
1808347.0
 10
946721.6801612679
 20
1808347.0
 10
946721.6801612679
 20
1808325.5671415343
  0
LWPOLYLINE
  5
100
330
6d
100
AcDbEntity
  8
04_È¹Áö
  6
CONTINUOUS
420
0
100
AcDbPolyline
 90
7
 70
129
 43
-1.0
 10
946735.5202419019
 20
1808318.2208001674
 10
946734.6857089284
 20
1808318.6480643959
 10
946724.1630009892
 20
1808324.0923978905
 10
946721.6801612679
 20
1808325.5671415343
 10
946721.6801612679
 20
1808347.0
 10
946735.5202419019
 20
1808347.0
 10
946735.5202419019
 20
1808318.2208001674
  0
LWPOLYLINE
  5
101
330
6d
100
AcDbEntity
  8
04_È¹Áö
  6
CONTINUOUS
420
0
100
AcDbPolyline
 90
8
 70
129
 43
-1.0
 10
946749.3603225357
 20
1808323.6454159848
 10
946745.8263561466
 20
1808318.3291603094
 10
946744.380354232
 20
1808316.1538881222
 10
946742.1544714008
 20
1808314.824207056
 10
946735.5202419019
 20
1808318.2208001674
 10
946735.5202419019
 20
1808347.0
 10
946749.3603225357
 20
1808347.0
 10
946749.3603225357
 20
1808323.6454159848
  0
LWPOLYLINE
  5
102
330
6d
100
AcDbEntity
  8
04_È¹Áö
  6
CONTINUOUS
420
0
100
AcDbPolyline
 90
6
 70
129
 43
-1.0
 10
946763.2004031697
 20
1808337.6748680794
 10
946749.5496943276
 20
1808323.9302938678
 10
946749.3603225357
 20
1808323.6454159848
 10
946749.3603225357
 20
1808347.0
 10
946763.2004031697
 20
1808347.0
 10
946763.2004031697
 20
1808337.6748680794
  0
LWPOLYLINE
  5
103
330
6d
100
AcDbEntity
  8
04_È¹Áö
  6
CONTINUOUS
420
0
100
AcDbPolyline
 90
6
 70
129
 43
-1.0
 10
946777.0404838036
 20
1808330.3108387087
 10
946764.7453394351
 20
1808339.2304276768
 10
946763.2004031697
 20
1808337.6748680794
 10
946763.2004031697
 20
1808347.0
 10
946777.0404838036
 20
1808347.0
 10
946777.0404838036
 20
1808330.3108387087
  0
LWPOLYLINE
  5
104
330
6d
100
AcDbEntity
  8
04_È¹Áö
  6
CONTINUOUS
420
0
100
AcDbPolyline
 90
8
 70
129
 43
-1.0
 10
946790.8805644376
 20
1808322.7867326734
 10
946787.1534681745
 20
1808324.9758178433
 10
946781.3617418993
 20
1808327.632422043
 10
946779.6446568274
 20
1808328.4216251883
 10
946777.0404838036
 20
1808330.3108387087
 10
946777.0404838036
 20
1808347.0
 10
946790.8805644376
 20
1808347.0
 10
946790.8805644376
 20
1808322.7867326734
  0
LWPOLYLINE
  5
105
330
6d
100
AcDbEntity
  8
04_È¹Áö
  6
CONTINUOUS
420
0
100
AcDbPolyline
 90
5
 70
129
 43
-1.0
 10
946804.7206450715
 20
1808314.6578534802
 10
946790.8805644376
 20
1808322.7867326734
 10
946790.8805644376
 20
1808347.0
 10
946804.7206450715
 20
1808347.0
 10
946804.7206450715
 20
1808314.6578534802
  0
LWPOLYLINE
  5
106
330
6d
100
AcDbEntity
  8
04_È¹Áö
  6
CONTINUOUS
420
0
100
AcDbPolyline
 90
6
 70
129
 43
-1.0
 10
946818.5607257055
 20
1808306.053321709
 10
946815.9847364614
 20
1808308.0419644145
 10
946804.7206450715
 20
1808314.6578534802
 10
946804.7206450715
 20
1808347.0
 10
946818.5607257055
 20
1808347.0
 10
946818.5607257055
 20
1808306.053321709
  0
LWPOLYLINE
  5
107
330
6d
100
AcDbEntity
  8
04_È¹Áö
  6
CONTINUOUS
420
0
100
AcDbPolyline
 90
7
 70
129
 43
-1.0
 10
946832.4008063393
 20
1808310.5559112506
 10
946832.1295033732
 20
1808309.9332735287
 10
946824.7863275959
 20
1808301.24720778
 10
946818.5607257055
 20
1808306.053321709
 10
946818.5607257055
 20
1808347.0
 10
946832.4008063393
 20
1808347.0
 10
946832.4008063393
 20
1808310.5559112506
  0
LWPOLYLINE
  5
108
330
6d
100
AcDbEntity
  8
04_È¹Áö
  6
CONTINUOUS
420
0
100
AcDbPolyline
 90
7
 70
129
 43
-1.0
 10
946846.2408869733
 20
1808316.3092401319
 10
946841.0425937241
 20
1808320.793875647
 10
946837.3568975746
 20
1808321.9300934046
 10
946832.4008063393
 20
1808310.5559112506
 10
946832.4008063393
 20
1808347.0
 10
946846.2408869733
 20
1808347.0
 10
946846.2408869733
 20
1808316.3092401319
  0
LWPOLYLINE
  5
109
330
6d
100
AcDbEntity
  8
04_È¹Áö
  6
CONTINUOUS
420
0
100
AcDbPolyline
 90
6
 70
129
 43
-1.0
 10
946860.0809676072
 20
1808304.3563062355
 10
946858.0517299104
 20
1808306.1198715915
 10
946846.2408869733
 20
1808316.3092401319
 10
946846.2408869733
 20
1808347.0
 10
946860.0809676072
 20
1808347.0
 10
946860.0809676072
 20
1808304.3563062355
  0
LWPOLYLINE
  5
10a
330
6d
100
AcDbEntity
  8
04_È¹Áö
  6
CONTINUOUS
420
0
100
AcDbPolyline
 90
13
 70
129
 43
-1.0
 10
946873.606968752
 20
1808337.232653991
 10
946871.5886598922
 20
1808311.940640187
 10
946871.146748092
 20
1808308.2672659708
 10
946870.1523916108
 20
1808303.4125809832
 10
946868.9911987149
 20
1808298.5966298503
 10
946868.5059766686
 20
1808296.852763938
 10
946865.9632056998
 20
1808301.5313584646
 10
946863.0043564645
 20
1808301.8156539903
 10
946860.0809676072
 20
1808304.3563062355
 10
946860.0809676072
 20
1808347.0
 10
946873.9210482412
 20
1808347.0
 10
946873.8033251205
 20
1808343.351218533
 10
946873.606968752
 20
1808337.232653991
  0
LWPOLYLINE
  5
10b
330
6d
100
AcDbEntity
  8
04_È¹Áö
  6
CONTINUOUS
420
0
100
AcDbPolyline
 90
5
 70
129
 43
-1.0
 10
946633.3985458538
 20
1808277.8735217887
 10
946629.2491076933
 20
1808276.6247161292
 10
946619.2481823171
 20
1808310.0
 10
946633.3985458538
 20
1808310.0
 10
946633.3985458538
 20
1808277.8735217887
  0
LWPOLYLINE
  5
10c
330
6d
100
AcDbEntity
  8
04_È¹Áö
  6
CONTINUOUS
420
0
100
AcDbPolyline
 90
5
 70
129
 43
-1.0
 10
946647.5489093905
 20
1808282.1321836575
 10
946633.3985458538
 20
1808277.8735217887
 10
946633.3985458538
 20
1808310.0
 10
946647.5489093905
 20
1808310.0
 10
946647.5489093905
 20
1808282.1321836575
  0
LWPOLYLINE
  5
10d
330
6d
100
AcDbEntity
  8
04_È¹Áö
  6
CONTINUOUS
420
0
100
AcDbPolyline
 90
6
 70
129
 43
-1.0
 10
946661.6992729271
 20
1808285.0134278014
 10
946657.8928966557
 20
1808285.245287008
 10
946647.5489093905
 20
1808282.1321836575
 10
946647.5489093905
 20
1808310.0
 10
946661.6992729271
 20
1808310.0
 10
946661.6992729271
 20
1808285.0134278014
  0
LWPOLYLINE
  5
10e
330
6d
100
AcDbEntity
  8
04_È¹Áö
  6
CONTINUOUS
420
0
100
AcDbPolyline
 90
7
 70
129
 43
-1.0
 10
946667.4097689822
 20
1808284.6655822417
 10
946661.6992729271
 20
1808285.0134278014
 10
946661.6992729271
 20
1808310.0
 10
946675.8496364638
 20
1808310.0
 10
946675.8496364638
 20
1808284.2511545806
 10
946672.0686162893
 20
1808283.7351943008
 10
946667.4097689822
 20
1808284.6655822417
  0
LWPOLYLINE
  5
10f
330
6d
100
AcDbEntity
  8
04_È¹Áö
  6
CONTINUOUS
420
0
100
AcDbPolyline
 90
6
 70
129
 43
-1.0
 10
946675.8496364638
 20
1808310.0
 10
946686.0
 20
1808310.0
 10
946686.0
 20
1808286.1821216722
 10
946690.0000000005
 20
1808286.1821216722
 10
946675.8496364638
 20
1808284.2511545806
 10
946675.8496364638
 20
1808310.0
  0
LWPOLYLINE
  5
110
330
6d
100
AcDbEntity
  8
ÁÖ°Å
  6
CONTINUOUS
420
0
100
AcDbPolyline
 90
9
 70
129
 43
-1.0
 10
946619.2481823171
 20
1808310.0
 10
946686.0
 20
1808310.0
 10
946686.0
 20
1808286.1821216722
 10
946690.0000000005
 20
1808286.1821216722
 10
946672.0686162893
 20
1808283.7351943008
 10
946667.4097689822
 20
1808284.6655822417
 10
946657.8928966557
 20
1808285.245287008
 10
946629.2491076933
 20
1808276.6247161292
 10
946619.2481823171
 20
1808310.0
  0
LWPOLYLINE
  5
111
330
6d
100
AcDbEntity
  8
ÁÖ°Å
  6
CONTINUOUS
420
0
100
AcDbPolyline
 90
35
 70
129
 43
-1.0
 10
946870.1523916108
 20
1808303.4125809832
 10
946868.9911987149
 20
1808298.5966298503
 10
946868.5059766686
 20
1808296.852763938
 10
946865.9632056998
 20
1808301.5313584646
 10
946863.0043564645
 20
1808301.8156539903
 10
946858.0517299104
 20
1808306.1198715915
 10
946841.0425937241
 20
1808320.793875647
 10
946837.3568975746
 20
1808321.9300934046
 10
946832.1295033732
 20
1808309.9332735287
 10
946824.7863275959
 20
1808301.24720778
 10
946815.9847364614
 20
1808308.0419644145
 10
946787.1534681745
 20
1808324.9758178433
 10
946781.3617418993
 20
1808327.632422043
 10
946779.6446568274
 20
1808328.4216251883
 10
946764.7453394351
 20
1808339.2304276768
 10
946749.5496943276
 20
1808323.9302938678
 10
946745.8263561466
 20
1808318.3291603094
 10
946744.380354232
 20
1808316.1538881222
 10
946742.1544714008
 20
1808314.824207056
 10
946734.6857089284
 20
1808318.6480643959
 10
946724.1630009892
 20
1808324.0923978905
 10
946716.1905396279
 20
1808328.8278371608
 10
946708.4545298157
 20
1808298.4095112605
 10
946707.758508509
 20
1808288.604624544
 10
946698.7362555129
 20
1808287.374276337
 10
946694.0
 20
1808286.7279640702
 10
946694.0
 20
1808310.0
 10
946694.0
 20
1808314.0
 10
946694.0
 20
1808347.0
 10
946873.9210482412
 20
1808347.0
 10
946873.8033251205
 20
1808343.351218533
 10
946873.606968752
 20
1808337.232653991
 10
946871.5886598922
 20
1808311.940640187
 10
946871.146748092
 20
1808308.2672659708
 10
946870.1523916108
 20
1808303.4125809832
  0
LWPOLYLINE
  5
112
330
6d
100
AcDbEntity
  8
ÁÖ°Å
  6
CONTINUOUS
420
0
100
AcDbPolyline
 90
5
 70
129
 43
-1.0
 10
946608.1611084108
 20
1808347.0
 10
946686.0
 20
1808347.0
 10
946686.0
 20
1808314.0
 10
946618.0495797327
 20
1808314.0
 10
946608.1611084108
 20
1808347.0
  0
LWPOLYLINE
  5
113
330
6d
100
AcDbEntity
  8
ÁÖ°Å
  6
CONTINUOUS
420
0
100
AcDbPolyline
 90
10
 70
129
 43
-1.0
 10
946874.0290665127
 20
1808353.0
 10
946773.0
 20
1808353.0
 10
946773.0
 20
1808396.0
 10
946876.310643624
 20
1808396.0
 10
946876.1246221369
 20
1808393.1060196192
 10
946875.4749813981
 20
1808381.8920833943
 10
946874.8980660513
 20
1808370.6732661896
 10
946874.3938899271
 20
1808359.4517864215
 10
946874.0290665127
 20
1808349.9999999995
 10
946874.0290665127
 20
1808353.0
  0
LWPOLYLINE
  5
114
330
6d
100
AcDbEntity
  8
ÁÖ°Å
  6
CONTINUOUS
420
0
100
AcDbPolyline
 90
5
 70
129
 43
-1.0
 10
946630.0
 20
1808396.0
 10
946630.0
 20
1808353.0
 10
946606.3632045342
 20
1808353.0
 10
946593.4782267512
 20
1808396.0
 10
946630.0
 20
1808396.0
  0
LWPOLYLINE
  5
115
330
6d
100
AcDbEntity
  8
ÁÖ°Å
  6
CONTINUOUS
420
0
100
AcDbPolyline
 90
22
 70
129
 43
-1.0
 10
946848.6467630386
 20
1808434.3773573786
 10
946858.1681231069
 20
1808434.5576714054
 10
946872.9989602482
 20
1808432.9873276502
 10
946878.9725156965
 20
1808432.3548255593
 10
946878.5018237412
 20
1808426.7208103582
 10
946877.6376012631
 20
1808415.5214950447
 10
946876.8451983787
 20
1808404.3161950633
 10
946876.5677586871
 20
1808399.999999999
 10
946876.5677586871
 20
1808404.0
 10
946773.0
 20
1808404.0
 10
946773.0
 20
1808462.0
 10
946789.5552889503
 20
1808462.0
 10
946784.8702651302
 20
1808457.1321251167
 10
946782.2382431761
 20
1808445.9358674155
 10
946779.534365809
 20
1808436.062283488
 10
946789.7486507756
 20
1808432.342575666
 10
946792.3849201803
 20
1808423.970423242
 10
946794.0337484109
 20
1808417.6054096443
 10
946814.7034911045
 20
1808426.5349665098
 10
946830.5363712233
 20
1808431.367704521
 10
946841.9614997177
 20
1808434.2640243329
 10
946848.6467630386
 20
1808434.3773573786
  0
LWPOLYLINE
  5
116
330
6d
100
AcDbEntity
  8
ÁÖ°Å
  6
CONTINUOUS
420
0
100
AcDbPolyline
 90
5
 70
129
 43
-1.0
 10
946573.7012841075
 20
1808462.0
 10
946630.0
 20
1808462.0
 10
946630.0
 20
1808404.0
 10
946591.0810215822
 20
1808404.0
 10
946573.7012841075
 20
1808462.0
  0
LWPOLYLINE
  5
117
330
6d
100
AcDbEntity
  8
ÁÖ°Å
  6
CONTINUOUS
420
0
100
AcDbPolyline
 90
5
 70
129
 43
-1.0
 10
946634.0
 20
1808462.0
 10
946686.0
 20
1808462.0
 10
946686.0
 20
1808404.0
 10
946634.0
 20
1808404.0
 10
946634.0
 20
1808462.0
  0
LWPOLYLINE
  5
118
330
6d
100
AcDbEntity
  8
ÁÖ°Å
  6
CONTINUOUS
420
0
100
AcDbPolyline
 90
11
 70
129
 43
-1.0
 10
946789.049880692
 20
1808484.033747788
 10
946788.9562683082
 20
1808468.0
 10
946694.0
 20
1808468.0
 10
946694.0
 20
1808518.52732366
 10
946689.9999999907
 20
1808518.52732366
 10
946722.0058159133
 20
1808518.898762373
 10
946761.9428152444
 20
1808516.064113481
 10
946785.430650896
 20
1808515.9888693516
 10
946787.6951168309
 20
1808507.0435716906
 10
946786.7843399502
 20
1808497.649306735
 10
946789.049880692
 20
1808484.033747788
  0
LWPOLYLINE
  5
119
330
6d
100
AcDbEntity
  8
ÁÖ°Å
  6
CONTINUOUS
420
0
100
AcDbPolyline
 90
8
 70
129
 43
-1.0
 10
946571.9033802308
 20
1808468.0
 10
946556.0954389755
 20
1808520.7545708986
 10
946545.5957301841
 20
1808520.9561576755
 10
946622.0489894262
 20
1808519.4883106698
 10
946682.0342471134
 20
1808518.4348783055
 10
946686.0
 20
1808518.4809022578
 10
946686.0
 20
1808468.0
 10
946571.9033802308
 20
1808468.0
  0
LWPOLYLINE
  5
11a
330
6d
100
AcDbEntity
  8
°ø¿ø
  6
CONTINUOUS
420
0
100
AcDbPolyline
 90
5
 70
129
 43
-1.0
 10
946767.0
 20
1808462.0
 10
946767.0
 20
1808404.0
 10
946694.0
 20
1808404.0
 10
946694.0
 20
1808462.0
 10
946767.0
 20
1808462.0
  0
LWPOLYLINE
  5
11b
330
6d
100
AcDbEntity
  8
»ó¾÷
  6
CONTINUOUS
420
0
100
AcDbPolyline
 90
5
 70
129
 43
-1.0
 10
946686.0
 20
1808396.0
 10
946686.0
 20
1808353.0
 10
946634.0
 20
1808353.0
 10
946634.0
 20
1808396.0
 10
946686.0
 20
1808396.0
  0
LWPOLYLINE
  5
11c
330
6d
100
AcDbEntity
  8
°ø¿ë¡¤Ä¿¹Â´ÏÆ¼
  6
CONTINUOUS
420
0
100
AcDbPolyline
 90
5
 70
129
 43
-1.0
 10
946767.0
 20
1808396.0
 10
946767.0
 20
1808353.0
 10
946694.0
 20
1808353.0
 10
946694.0
 20
1808396.0
 10
946767.0
 20
1808396.0
  0
LWPOLYLINE
  5
11d
330
6d
100
AcDbEntity
  8
µµ·Î
  6
CONTINUOUS
420
0
100
AcDbPolyline
 90
55
 70
129
 43
-1.0
 10
946686.0
 20
1808347.0
 10
946608.1611084108
 20
1808347.0
 10
946597.7217938006
 20
1808347.0
 10
946596.8228420593
 20
1808350.0000000002
 10
946596.8228420593
 20
1808353.0
 10
946606.3632045342
 20
1808353.0
 10
946630.0
 20
1808353.0
 10
946630.0
 20
1808396.0
 10
946593.4782267512
 20
1808396.0
 10
946583.0389153596
 20
1808396.0
 10
946581.840313038
 20
1808400.0
 10
946581.840313038
 20
1808404.0
 10
946591.0810215822
 20
1808404.0
 10
946630.0
 20
1808404.0
 10
946630.0
 20
1808462.0
 10
946573.7012841075
 20
1808462.0
 10
946563.2619770514
 20
1808462.0
 10
946562.3630253101
 20
1808465.0
 10
946562.3630253101
 20
1808468.0
 10
946571.9033802308
 20
1808468.0
 10
946686.0
 20
1808468.0
 10
946686.0
 20
1808518.4809022578
 10
946689.9999999907
 20
1808518.52732366
 10
946694.0
 20
1808518.52732366
 10
946694.0
 20
1808468.0
 10
946788.9562683082
 20
1808468.0
 10
946788.9559252085
 20
1808467.9412345556
 10
946790.081536594
 20
1808465.0
 10
946790.081536594
 20
1808462.5467864808
 10
946789.5552889503
 20
1808462.0
 10
946773.0
 20
1808462.0
 10
946773.0
 20
1808404.0
 10
946876.5677586871
 20
1808404.0
 10
946876.5677586871
 20
1808399.999999999
 10
946876.310643624
 20
1808396.0
 10
946773.0
 20
1808396.0
 10
946773.0
 20
1808353.0
 10
946874.0290665127
 20
1808353.0
 10
946874.0290665127
 20
1808349.9999999995
 10
946873.9606569122
 20
1808348.2276550569
 10
946873.9210482412
 20
1808347.0
 10
946694.0
 20
1808347.0
 10
946694.0
 20
1808314.0
 10
946694.0
 20
1808310.0
 10
946694.0
 20
1808286.7279640702
 10
946690.0000000005
 20
1808286.1821216722
 10
946686.0
 20
1808286.1821216722
 10
946686.0
 20
1808310.0
 10
946619.2481823171
 20
1808310.0
 10
946608.8088652765
 20
1808310.0
 10
946608.2095641156
 20
1808312.0
 10
946608.2095641156
 20
1808314.0
 10
946618.0495797327
 20
1808314.0
 10
946686.0
 20
1808314.0
 10
946686.0
 20
1808347.0
  0
LWPOLYLINE
  5
11e
330
6d
100
AcDbEntity
  8
µµ·Î
  6
CONTINUOUS
420
0
100
AcDbPolyline
 90
5
 70
129
 43
-1.0
 10
946634.0
 20
1808353.0
 10
946686.0
 20
1808353.0
 10
946686.0
 20
1808396.0
 10
946634.0
 20
1808396.0
 10
946634.0
 20
1808353.0
  0
LWPOLYLINE
  5
11f
330
6d
100
AcDbEntity
  8
µµ·Î
  6
CONTINUOUS
420
0
100
AcDbPolyline
 90
5
 70
129
 43
-1.0
 10
946694.0
 20
1808353.0
 10
946767.0
 20
1808353.0
 10
946767.0
 20
1808396.0
 10
946694.0
 20
1808396.0
 10
946694.0
 20
1808353.0
  0
LWPOLYLINE
  5
120
330
6d
100
AcDbEntity
  8
µµ·Î
  6
CONTINUOUS
420
0
100
AcDbPolyline
 90
5
 70
129
 43
-1.0
 10
946634.0
 20
1808404.0
 10
946686.0
 20
1808404.0
 10
946686.0
 20
1808462.0
 10
946634.0
 20
1808462.0
 10
946634.0
 20
1808404.0
  0
LWPOLYLINE
  5
121
330
6d
100
AcDbEntity
  8
µµ·Î
  6
CONTINUOUS
420
0
100
AcDbPolyline
 90
5
 70
129
 43
-1.0
 10
946694.0
 20
1808404.0
 10
946767.0
 20
1808404.0
 10
946767.0
 20
1808462.0
 10
946694.0
 20
1808462.0
 10
946694.0
 20
1808404.0
  0
LWPOLYLINE
  5
122
330
6d
100
AcDbEntity
  8
¿ÏÃæ³ìÁö
  6
CONTINUOUS
420
0
100
AcDbPolyline
 90
6
 70
129
 43
-1.0
 10
946608.8088652765
 20
1808310.0
 10
946619.2481823171
 20
1808310.0
 10
946629.2491076933
 20
1808276.6247161292
 10
946619.6733509868
 20
1808273.7428177353
 10
946608.2986703131
 20
1808311.702632989
 10
946608.8088652765
 20
1808310.0
  0
LWPOLYLINE
  5
123
330
6d
100
AcDbEntity
  8
¿ÏÃæ³ìÁö
  6
CONTINUOUS
420
0
100
AcDbPolyline
 90
6
 70
129
 43
-1.0
 10
946618.0495797327
 20
1808314.0
 10
946608.2095641156
 20
1808314.0
 10
946608.2095641156
 20
1808312.0
 10
946597.7217938006
 20
1808347.0
 10
946608.1611084108
 20
1808347.0
 10
946618.0495797327
 20
1808314.0
  0
LWPOLYLINE
  5
124
330
6d
100
AcDbEntity
  8
¿ÏÃæ³ìÁö
  6
CONTINUOUS
420
0
100
AcDbPolyline
 90
7
 70
129
 43
-1.0
 10
946606.3632045342
 20
1808353.0
 10
946596.8228420593
 20
1808353.0
 10
946596.8228420593
 20
1808350.0000000002
 10
946597.1551117325
 20
1808348.8911429015
 10
946583.0389153596
 20
1808396.0
 10
946593.4782267512
 20
1808396.0
 10
946606.3632045342
 20
1808353.0
  0
LWPOLYLINE
  5
125
330
6d
100
AcDbEntity
  8
¿ÏÃæ³ìÁö
  6
CONTINUOUS
420
0
100
AcDbPolyline
 90
7
 70
129
 43
-1.0
 10
946581.840313038
 20
1808404.0
 10
946581.840313038
 20
1808400.0
 10
946582.9025494979
 20
1808396.455082922
 10
946563.2619770514
 20
1808462.0
 10
946573.7012841075
 20
1808462.0
 10
946591.0810215822
 20
1808404.0
 10
946581.840313038
 20
1808404.0
  0
LWPOLYLINE
  5
126
330
6d
100
AcDbEntity
  8
¿ÏÃæ³ìÁö
  6
CONTINUOUS
420
0
100
AcDbPolyline
 90
6
 70
129
 43
-1.0
 10
946562.3630253101
 20
1808468.0
 10
946562.3630253101
 20
1808465.0
 10
946545.5957301841
 20
1808520.9561576755
 10
946556.0954389755
 20
1808520.7545708986
 10
946571.9033802308
 20
1808468.0
 10
946562.3630253101
 20
1808468.0
  0
ENDSEC
  0
SECTION
  2
OBJECTS
  0
DICTIONARY
  5
C
330
0
100
AcDbDictionary
281
1
  3
ACAD_GROUP
350
D
  3
ACAD_LAYOUT
350
1A
  3
ACAD_MLEADERSTYLE
350
43
  3
ACAD_MLINESTYLE
350
17
  3
ACAD_PLOTSETTINGS
350
19
  3
ACAD_PLOTSTYLENAME
350
E
  3
ACAD_TABLESTYLE
350
42
  3
ACAD_VISUALSTYLE
350
2A
  3
ACAD_COLOR
350
9999999
  3
ACAD_MATERIAL
350
999999A
  3
ACAD_SCALELIST
350
999999B
  3
EZDXF_META
350
99999A4
  0
DICTIONARY
  5
D
102
{ACAD_REACTORS
330
C
102
}
330
C
100
AcDbDictionary
281
1
  0
DICTIONARY
  5
1A
102
{ACAD_REACTORS
330
C
102
}
330
C
100
AcDbDictionary
281
1
  3
Layout1
350
1E
  3
Layout2
350
26
  3
Model
350
22
  0
DICTIONARY
  5
43
102
{ACAD_REACTORS
330
C
102
}
330
C
100
AcDbDictionary
281
1
  3
Standard
350
99999A1
  0
DICTIONARY
  5
17
102
{ACAD_REACTORS
330
C
102
}
330
C
100
AcDbDictionary
281
1
  3
Standard
350
18
  0
DICTIONARY
  5
19
102
{ACAD_REACTORS
330
C
102
}
330
C
100
AcDbDictionary
281
1
  0
ACDBDICTIONARYWDFLT
  5
E
102
{ACAD_REACTORS
330
C
102
}
330
C
100
AcDbDictionary
281
1
  3
Normal
350
F
100
AcDbDictionaryWithDefault
340
F
  0
DICTIONARY
  5
42
102
{ACAD_REACTORS
330
C
102
}
330
C
100
AcDbDictionary
281
1
  0
DICTIONARY
  5
2A
102
{ACAD_REACTORS
330
C
102
}
330
C
100
AcDbDictionary
281
1
  3
2dWireframe
350
2F
  3
3D Hidden
350
31
  3
3dWireframe
350
30
  3
Basic
350
32
  3
Brighten
350
36
  3
ColorChange
350
3A
  3
Conceptual
350
34
  3
Dim
350
35
  3
Facepattern
350
39
  3
Flat
350
2B
  3
FlatWithEdges
350
2C
  3
Gouraud
350
2D
  3
GouraudWithEdges
350
2E
  3
Linepattern
350
38
  3
Realistic
350
33
  3
Thicken
350
37
  0
LAYOUT
  5
1E
102
{ACAD_REACTORS
330
1A
102
}
330
1A
100
AcDbPlotSettings
  1

  2
none_device
  4

  6

 40
0.0
 41
0.0
 42
0.0
 43
0.0
 44
0.0
 45
0.0
 46
0.0
 47
0.0
 48
0.0
 49
0.0
140
0.0
141
0.0
142
1.0
143
1.0
 70
688
 72
0
 73
0
 74
5
  7

 75
16
 76
0
 77
2
 78
300
147
1.0
148
0.0
149
0.0
100
AcDbLayout
  1
Layout1
 70
1
 71
1
 10
0.0
 20
0.0
 11
12.0
 21
9.0
 12
0.0
 22
0.0
 32
0.0
 14
1e+20
 24
1e+20
 34
1e+20
 15
-1e+20
 25
-1e+20
 35
-1e+20
146
0.0
 13
0.0
 23
0.0
 33
0.0
 16
1.0
 26
0.0
 36
0.0
 17
0.0
 27
1.0
 37
0.0
 76
0
330
6e
  0
LAYOUT
  5
26
102
{ACAD_REACTORS
330
1A
102
}
330
1A
100
AcDbPlotSettings
  1

  2
none_device
  4

  6

 40
0.0
 41
0.0
 42
0.0
 43
0.0
 44
0.0
 45
0.0
 46
0.0
 47
0.0
 48
0.0
 49
0.0
140
0.0
141
0.0
142
1.0
143
1.0
 70
688
 72
0
 73
0
 74
5
  7

 75
16
 76
0
 77
2
 78
300
147
1.0
148
0.0
149
0.0
100
AcDbLayout
  1
Layout2
 70
1
 71
2
 10
0.0
 20
0.0
 11
0.0
 21
0.0
 12
0.0
 22
0.0
 32
0.0
 14
0.0
 24
0.0
 34
0.0
 15
0.0
 25
0.0
 35
0.0
146
0.0
 13
0.0
 23
0.0
 33
0.0
 16
1.0
 26
0.0
 36
0.0
 17
0.0
 27
1.0
 37
0.0
 76
0
330
6f
  0
LAYOUT
  5
22
102
{ACAD_REACTORS
330
1A
102
}
330
1A
100
AcDbPlotSettings
  1

  2
none_device
  4

  6

 40
0.0
 41
0.0
 42
0.0
 43
0.0
 44
0.0
 45
0.0
 46
0.0
 47
0.0
 48
0.0
 49
0.0
140
0.0
141
0.0
142
1.0
143
1.0
 70
1712
 72
0
 73
0
 74
0
  7

 75
0
 76
0
 77
2
 78
300
147
1.0
148
0.0
149
0.0
100
AcDbLayout
  1
Model
 70
1
 71
0
 10
0.0
 20
0.0
 11
12.0
 21
9.0
 12
0.0
 22
0.0
 32
0.0
 14
30.0
 24
49.75
 34
0.0
 15
130.5
 25
163.1318914119703
 35
0.0
146
0.0
 13
0.0
 23
0.0
 33
0.0
 16
1.0
 26
0.0
 36
0.0
 17
0.0
 27
1.0
 37
0.0
 76
0
330
6d
331
29
  0
MLINESTYLE
  5
18
102
{ACAD_REACTORS
330
17
102
}
330
17
100
AcDbMlineStyle
  2
Standard
 70
0
  3

 62
256
 51
90.0
 52
90.0
 71
2
 49
0.5
 62
256
  6
BYLAYER
 49
-0.5
 62
256
  6
BYLAYER
  0
ACDBPLACEHOLDER
  5
F
102
{ACAD_REACTORS
330
E
102
}
330
E
  0
VISUALSTYLE
  5
2F
102
{ACAD_REACTORS
330
2A
102
}
330
2A
100
AcDbVisualStyle
  2
2dWireframe
 70
4
 71
0
 72
2
 73
0
 90
0
 40
-0.6
 41
-30.0
 62
5
 63
7
421
16777215
 74
1
 91
4
 64
7
 65
257
 75
1
175
1
 42
1.0
 92
0
 66
257
 43
1.0
 76
1
 77
6
 78
2
 67
7
 79
5
170
0
171
0
290
0
174
0
 93
1
 44
0.0
173
0
291
0
 45
0.0
1001
ACAD
1000
AcDbSavedByObjectVersion
1070
0
  0
VISUALSTYLE
  5
31
102
{ACAD_REACTORS
330
2A
102
}
330
2A
100
AcDbVisualStyle
  2
3D Hidden
 70
6
 71
1
 72
2
 73
2
 90
0
 40
-0.6
 41
-30.0
 62
5
 63
7
421
16777215
 74
2
 91
2
 64
7
 65
257
 75
2
175
1
 42
40.0
 92
0
 66
257
 43
1.0
 76
1
 77
6
 78
2
 67
7
 79
3
170
0
171
0
290
0
174
0
 93
1
 44
0.0
173
0
291
0
 45
0.0
1001
ACAD
1000
AcDbSavedByObjectVersion
1070
0
  0
VISUALSTYLE
  5
30
102
{ACAD_REACTORS
330
2A
102
}
330
2A
100
AcDbVisualStyle
  2
3dWireframe
 70
5
 71
0
 72
2
 73
0
 90
0
 40
-0.6
 41
-30.0
 62
5
 63
7
421
16777215
 74
1
 91
4
 64
7
 65
257
 75
1
175
1
 42
1.0
 92
0
 66
257
 43
1.0
 76
1
 77
6
 78
2
 67
7
 79
5
170
0
171
0
290
0
174
0
 93
1
 44
0.0
173
0
291
0
 45
0.0
1001
ACAD
1000
AcDbSavedByObjectVersion
1070
0
  0
VISUALSTYLE
  5
32
102
{ACAD_REACTORS
330
2A
102
}
330
2A
100
AcDbVisualStyle
  2
Basic
 70
7
 71
1
 72
0
 73
1
 90
0
 40
-0.6
 41
-30.0
 62
5
 63
7
421
16777215
 74
0
 91
4
 64
7
 65
257
 75
1
175
1
 42
1.0
 92
8
 66
7
 43
1.0
 76
1
 77
6
 78
2
 67
7
 79
5
170
0
171
0
290
0
174
0
 93
1
 44
0.0
173
0
291
1
 45
0.0
1001
ACAD
1000
AcDbSavedByObjectVersion
1070
0
  0
VISUALSTYLE
  5
36
102
{ACAD_REACTORS
330
2A
102
}
330
2A
100
AcDbVisualStyle
  2
Brighten
 70
12
 71
2
 72
2
 73
0
 90
0
 40
-0.6
 41
-30.0
 62
5
 63
7
421
16777215
 74
1
 91
4
 64
7
 65
257
 75
1
175
1
 42
1.0
 92
8
 66
7
 43
1.0
 76
1
 77
6
 78
2
 67
7
 79
5
170
0
171
0
290
0
174
0
 93
1
 44
50.0
173
0
291
1
 45
0.0
1001
ACAD
1000
AcDbSavedByObjectVersion
1070
0
  0
VISUALSTYLE
  5
3A
102
{ACAD_REACTORS
330
2A
102
}
330
2A
100
AcDbVisualStyle
  2
ColorChange
 70
16
 71
2
 72
2
 73
3
 90
0
 40
-0.6
 41
-30.0
 62
5
 63
8
421
8421504
 74
1
 91
4
 64
7
 65
257
 75
1
175
1
 42
1.0
 92
8
 66
8
 43
1.0
 76
1
 77
6
 78
2
 67
7
 79
5
170
0
171
0
290
0
174
0
 93
1
 44
0.0
173
0
291
1
 45
0.0
1001
ACAD
1000
AcDbSavedByObjectVersion
1070
0
  0
VISUALSTYLE
  5
34
102
{ACAD_REACTORS
330
2A
102
}
330
2A
100
AcDbVisualStyle
  2
Conceptual
 70
9
 71
3
 72
2
 73
0
 90
0
 40
-0.6
 41
-30.0
 62
5
 63
7
421
16777215
 74
2
 91
2
 64
7
 65
257
 75
1
175
1
 42
40.0
 92
8
 66
7
 43
1.0
 76
1
 77
6
 78
2
 67
7
 79
3
170
0
171
0
290
0
174
0
 93
1
 44
0.0
173
0
291
0
 45
0.0
1001
ACAD
1000
AcDbSavedByObjectVersion
1070
0
  0
VISUALSTYLE
  5
35
102
{ACAD_REACTORS
330
2A
102
}
330
2A
100
AcDbVisualStyle
  2
Dim
 70
11
 71
2
 72
2
 73
0
 90
0
 40
-0.6
 41
-30.0
 62
5
 63
7
421
16777215
 74
1
 91
4
 64
7
 65
257
 75
1
175
1
 42
1.0
 92
8
 66
7
 43
1.0
 76
1
 77
6
 78
2
 67
7
 79
5
170
0
171
0
290
0
174
0
 93
1
 44
-50.0
173
0
291
1
 45
0.0
1001
ACAD
1000
AcDbSavedByObjectVersion
1070
0
  0
VISUALSTYLE
  5
39
102
{ACAD_REACTORS
330
2A
102
}
330
2A
100
AcDbVisualStyle
  2
Facepattern
 70
15
 71
2
 72
2
 73
0
 90
0
 40
-0.6
 41
-30.0
 62
5
 63
7
421
16777215
 74
1
 91
4
 64
7
 65
257
 75
1
175
1
 42
1.0
 92
8
 66
7
 43
1.0
 76
1
 77
6
 78
2
 67
7
 79
5
170
0
171
0
290
0
174
0
 93
1
 44
0.0
173
0
291
1
 45
0.0
1001
ACAD
1000
AcDbSavedByObjectVersion
1070
0
  0
VISUALSTYLE
  5
2B
102
{ACAD_REACTORS
330
2A
102
}
330
2A
100
AcDbVisualStyle
  2
Flat
 70
0
 71
2
 72
1
 73
1
 90
2
 40
-0.6
 41
30.0
 62
5
 63
7
421
16777215
 74
0
 91
4
 64
7
 65
257
 75
1
175
1
 42
1.0
 92
8
 66
7
 43
1.0
 76
1
 77
6
 78
2
 67
7
 79
5
170
0
171
0
290
0
174
0
 93
13
 44
0.0
173
0
291
1
 45
0.0
1001
ACAD
1000
AcDbSavedByObjectVersion
1070
0
  0
VISUALSTYLE
  5
2C
102
{ACAD_REACTORS
330
2A
102
}
330
2A
100
AcDbVisualStyle
  2
FlatWithEdges
 70
1
 71
2
 72
1
 73
1
 90
2
 40
-0.6
 41
30.0
 62
5
 63
7
421
16777215
 74
1
 91
4
 64
7
 65
257
 75
1
175
1
 42
1.0
 92
0
 66
257
 43
1.0
 76
1
 77
6
 78
2
 67
7
 79
5
170
0
171
0
290
0
174
0
 93
13
 44
0.0
173
0
291
1
 45
0.0
1001
ACAD
1000
AcDbSavedByObjectVersion
1070
0
  0
VISUALSTYLE
  5
2D
102
{ACAD_REACTORS
330
2A
102
}
330
2A
100
AcDbVisualStyle
  2
Gouraud
 70
2
 71
2
 72
2
 73
1
 90
2
 40
-0.6
 41
30.0
 62
5
 63
7
421
16777215
 74
0
 91
4
 64
7
 65
257
 75
1
175
1
 42
1.0
 92
0
 66
7
 43
1.0
 76
1
 77
6
 78
2
 67
7
 79
5
170
0
171
0
290
0
174
0
 93
13
 44
0.0
173
0
291
1
 45
0.0
1001
ACAD
1000
AcDbSavedByObjectVersion
1070
0
  0
VISUALSTYLE
  5
2E
102
{ACAD_REACTORS
330
2A
102
}
330
2A
100
AcDbVisualStyle
  2
GouraudWithEdges
 70
3
 71
2
 72
2
 73
1
 90
2
 40
-0.6
 41
30.0
 62
5
 63
7
421
16777215
 74
1
 91
4
 64
7
 65
257
 75
1
175
1
 42
1.0
 92
0
 66
257
 43
1.0
 76
1
 77
6
 78
2
 67
7
 79
5
170
0
171
0
290
0
174
0
 93
13
 44
0.0
173
0
291
1
 45
0.0
1001
ACAD
1000
AcDbSavedByObjectVersion
1070
0
  0
VISUALSTYLE
  5
38
102
{ACAD_REACTORS
330
2A
102
}
330
2A
100
AcDbVisualStyle
  2
Linepattern
 70
14
 71
2
 72
2
 73
0
 90
0
 40
-0.6
 41
-30.0
 62
5
 63
7
421
16777215
 74
1
 91
4
 64
7
 65
257
 75
7
175
7
 42
1.0
 92
8
 66
7
 43
1.0
 76
1
 77
6
 78
2
 67
7
 79
5
170
0
171
0
290
0
174
0
 93
1
 44
0.0
173
0
291
1
 45
0.0
1001
ACAD
1000
AcDbSavedByObjectVersion
1070
0
  0
VISUALSTYLE
  5
33
102
{ACAD_REACTORS
330
2A
102
}
330
2A
100
AcDbVisualStyle
  2
Realistic
 70
8
 71
2
 72
2
 73
0
 90
0
 40
-0.6
 41
-30.0
 62
5
 63
7
421
16777215
 74
1
 91
0
 64
7
 65
257
 75
1
175
1
 42
1.0
 92
8
 66
8
 43
1.0
 76
1
 77
6
 78
2
 67
7
 79
5
170
0
171
0
290
0
174
0
 93
13
 44
0.0
173
0
291
0
 45
0.0
1001
ACAD
1000
AcDbSavedByObjectVersion
1070
0
  0
VISUALSTYLE
  5
37
102
{ACAD_REACTORS
330
2A
102
}
330
2A
100
AcDbVisualStyle
  2
Thicken
 70
13
 71
2
 72
2
 73
0
 90
0
 40
-0.6
 41
-30.0
 62
5
 63
7
421
16777215
 74
1
 91
4
 64
7
 65
257
 75
1
175
1
 42
1.0
 92
12
 66
7
 43
1.0
 76
1
 77
6
 78
2
 67
7
 79
5
170
0
171
0
290
0
174
0
 93
1
 44
0.0
173
0
291
1
 45
0.0
1001
ACAD
1000
AcDbSavedByObjectVersion
1070
0
  0
DICTIONARY
  5
9999999
330
C
100
AcDbDictionary
281
1
  0
DICTIONARY
  5
999999A
330
C
100
AcDbDictionary
281
1
  3
ByBlock
350
999999C
  3
ByLayer
350
999999D
  3
Global
350
999999E
  0
DICTIONARY
  5
999999B
330
C
100
AcDbDictionary
281
1
  0
MATERIAL
  5
999999C
102
{ACAD_REACTORS
330
999999A
102
}
330
999999A
100
AcDbMaterial
  1
ByBlock
  2

 70
0
 40
1.0
 71
1
 41
1.0
 91
-1023410177
 42
1.0
 72
1
  3

 73
1
 74
1
 75
1
 44
0.5
 73
0
 45
1.0
 46
1.0
 77
1
  4

 78
1
 79
1
170
1
 48
1.0
171
1
  6

172
1
173
1
174
1
140
1.0
141
1.0
175
1
  7

176
1
177
1
178
1
143
1.0
179
1
  8

270
1
271
1
272
1
145
1.0
146
1.0
273
1
  9

274
1
275
1
276
1
 42
1.0
 72
1
  3

 73
1
 74
1
 75
1
 94
63
  0
MATERIAL
  5
999999D
102
{ACAD_REACTORS
330
999999A
102
}
330
999999A
100
AcDbMaterial
  1
ByLayer
  2

 70
0
 40
1.0
 71
1
 41
1.0
 91
-1023410177
 42
1.0
 72
1
  3

 73
1
 74
1
 75
1
 44
0.5
 73
0
 45
1.0
 46
1.0
 77
1
  4

 78
1
 79
1
170
1
 48
1.0
171
1
  6

172
1
173
1
174
1
140
1.0
141
1.0
175
1
  7

176
1
177
1
178
1
143
1.0
179
1
  8

270
1
271
1
272
1
145
1.0
146
1.0
273
1
  9

274
1
275
1
276
1
 42
1.0
 72
1
  3

 73
1
 74
1
 75
1
 94
63
  0
MATERIAL
  5
999999E
102
{ACAD_REACTORS
330
999999A
102
}
330
999999A
100
AcDbMaterial
  1
Global
  2

 70
0
 40
1.0
 71
1
 41
1.0
 91
-1023410177
 42
1.0
 72
1
  3

 73
1
 74
1
 75
1
 44
0.5
 73
0
 45
1.0
 46
1.0
 77
1
  4

 78
1
 79
1
170
1
 48
1.0
171
1
  6

172
1
173
1
174
1
140
1.0
141
1.0
175
1
  7

176
1
177
1
178
1
143
1.0
179
1
  8

270
1
271
1
272
1
145
1.0
146
1.0
273
1
  9

274
1
275
1
276
1
 42
1.0
 72
1
  3

 73
1
 74
1
 75
1
 94
63
  0
MLEADERSTYLE
  5
99999A1
102
{ACAD_REACTORS
330
43
102
}
330
43
100
AcDbMLeaderStyle
179
2
170
2
171
1
172
0
 90
2
 40
0.0
 41
0.0
173
1
 91
-1056964608
 92
-2
290
1
 42
2.0
291
1
 43
8.0
  3
Standard
 44
4.0
300

342
87
174
1
175
1
176
0
178
1
 93
-1056964608
 45
4.0
292
0
297
0
 46
4.0
 94
-1056964608
 47
1.0
 49
1.0
140
1.0
294
1
141
0.0
177
0
142
1.0
295
0
296
0
143
3.75
271
0
272
9
273
9
  0
DICTIONARY
  5
99999A4
330
C
100
AcDbDictionary
280
1
281
1
  3
WRITTEN_BY_EZDXF
350
99999A5
  0
DICTIONARYVAR
  5
99999A5
330
99999A4
100
DictionaryVariables
280
0
  1
1.4.4 @ 2026-09-19T01:55:41.149115+00:00
  0
ENDSEC
  0
EOF
